<svg width="380" height="250" viewBox="0 0 380 250" fill="none" xmlns="http://www.w3.org/2000/svg">
<circle cx="320" cy="60" r="60" fill="#C8E0C5"/>
<path fill-rule="evenodd" clip-rule="evenodd" d="M309.333 29.1333C308.258 30.6672 308.267 34.1029 308.267 38.4379C308.267 40.9579 308.267 45.1333 308.267 45.1333H312C312 45.1333 312 44.4219 312 38.2C312 32.8667 311.467 30.7333 314.133 30.7333C316.8 30.7333 316.267 33.4 316.267 34.4667H320C320 31.9067 319.467 27 313.843 27C312.603 27 310.409 27.5995 309.333 29.1333ZM326.933 45.1333C326.933 45.1333 330.32 45.1333 331.2 45.1333C331.2 45.1333 331.2 42.8133 331.2 41.9333C331.2 41.9333 327.813 41.9333 326.933 41.9333C326.933 41.9333 326.933 44.2533 326.933 45.1333ZM304 71.2667V93.1333H320H336V71.2667V49.4H320H304V71.2667ZM317.867 53.6667V57.4C316.207 57.4 312.533 57.4 312.533 57.4C312.533 56.4048 312.533 53.6667 312.533 53.6667C314.193 53.6667 317.867 53.6667 317.867 53.6667Z" fill="#46714A"/>
<circle cx="320" cy="190" r="60" fill="#C8E0C5"/>
<path fill-rule="evenodd" clip-rule="evenodd" d="M291.432 165.547C291.432 168.047 292.804 168.971 296.432 168.971C298.051 168.971 300.432 168.971 300.432 168.971L302.432 186.547C302.432 186.547 301.511 186.644 298.432 188.547C295.352 190.45 294.011 193 292.511 195.5C290.111 199.5 290.216 208.969 295.432 214.547C300.668 219.784 308.549 221.645 314.932 219.047C318.3 217.676 320.932 215.547 323.932 211.047C325.146 209.226 325.366 205.721 325.366 205.721C326.612 205.716 333.366 205.721 333.366 205.721C333.366 205.721 333.866 206.929 333.866 208.047C333.866 212.047 337.366 211.547 341.366 211.547C343.866 211.547 348.366 212.547 348.366 208.769C348.366 204.99 345.366 205.721 339.366 205.721L337.813 196.721C336.584 188.81 338.492 189.539 328.366 189.5C325.702 189.489 317.932 189.5 317.932 189.5C317.932 188.547 314.866 187.047 313.366 186.547C311.41 185.895 309.611 185.567 308.432 185.547L307.366 180.221C307.366 180.221 309.404 180.221 317.397 180.221C325.429 180.221 326.366 181.047 328.366 178.547C328.366 173.547 326.511 174.221 316.426 174.221H306.731C306.731 174.221 306.03 169.547 305.932 166.547C305.866 164.547 304.932 163.547 303.932 163.047H298.432C293.49 162.812 291.432 163.423 291.432 165.547ZM315.432 194.547C319.432 197.547 320.098 203.047 318.932 206.547C317.667 210.342 314.432 214.047 308.432 214.047C302.432 214.047 297.932 209.547 297.432 203.547C297.432 196.161 301.932 192.047 308.432 192.047C311.932 192.047 313.432 193.047 315.432 194.547ZM306.432 200.547C304.932 201.547 305.217 203.922 306.324 204.985C307.432 206.047 309.64 206.547 310.932 204.985C312.184 203.47 311.932 201.547 310.432 200.547C308.932 199.547 307.932 199.547 306.432 200.547Z" fill="#46714A"/>
<circle cx="190" cy="190" r="60" fill="#C8E0C5"/>
<path d="M212.534 201.224H179.93V216.724C179.93 221 183.137 221 185.275 221H208.258C212.534 221 212.534 217.793 212.534 215.655V201.224Z" fill="#46714A"/>
<path d="M184.206 173.431C180.358 169.583 177.792 167.017 175.12 168.086C171.379 168.086 168.172 176.104 166.034 179.31C163.718 182.784 162.292 182.517 163.361 189.466L164.43 216.19C164.252 217.793 164.751 221 168.172 221C171.592 221 172.091 217.437 171.913 215.655L171.378 187.862C175.12 181.983 177.792 176.104 179.396 177.172C185.382 183.586 186.879 184.655 189.016 182.517C191.689 179.845 189.016 178.241 184.206 173.431Z" fill="#46714A"/>
<circle cx="182.068" cy="163.276" r="4.27586" fill="#46714A"/>
<path d="M184.023 191.127C185.733 193.265 186.873 194.334 187.229 194.334H196.85C197.563 193.978 198.988 192.944 198.988 191.662C198.988 190.379 197.563 189.346 196.85 188.989C198.453 186.317 198.988 184.998 196.85 183.786C194.712 182.575 193.109 187.172 192.574 189.131L187.23 188.989C184.557 185.782 184.023 183.644 181.885 185.248C179.747 186.851 181.885 188.455 184.023 191.127Z" fill="#46714A"/>
<circle cx="202.379" cy="191.069" r="3.2069" fill="#46714A"/>
<path d="M175.654 196.276C175.654 195.171 176.55 194.276 177.654 194.276H214.275C215.38 194.276 216.275 195.171 216.275 196.276V197.621C216.275 198.725 215.38 199.621 214.275 199.621H177.654C176.55 199.621 175.654 198.725 175.654 197.621V196.276Z" fill="#46714A"/>
<circle cx="60" cy="190" r="60" fill="#C8E0C5"/>
<circle cx="78.5537" cy="214.544" r="6.39247" fill="#46714A"/>
<circle cx="49.242" cy="214.544" r="6.39247" fill="#46714A"/>
<path d="M89 186.012H39.1075C40.2301 199.857 52.9839 203.318 59.2204 203.318L55.3226 206.748C55.9462 206.998 57.1416 208.619 57.6613 209.399L64.0538 203.942L70.2903 209.243C70.5398 208.245 71.9534 207.164 72.629 206.748L68.8871 203.318C83.4806 203.318 88.3763 191.781 89 186.012Z" fill="#46714A"/>
<path d="M45.1882 182.27H41.6022C40.8226 179.619 40.6667 179.619 40.043 178.84C39.5441 178.216 38.172 178.268 37.5484 178.372H33.6505C32.0914 178.372 31 178.216 31 176.345C31 174.848 32.767 174.682 33.6505 174.786H38.6398C43.2548 174.661 44.9283 179.723 45.1882 182.27Z" fill="#46714A"/>
<path d="M74.8118 161.377L64.6774 181.334V161.377C64.6774 158.883 71.4337 160.338 74.8118 161.377Z" fill="#46714A"/>
<path d="M78.086 162.937L68.8871 181.334L85.2581 170.109C83.6366 166.367 79.8011 163.768 78.086 162.937Z" fill="#46714A"/>
<path d="M86.8172 173.383L73.8763 182.27H89C89 177.904 87.5448 174.526 86.8172 173.383Z" fill="#46714A"/>
<circle cx="190" cy="60" r="60" fill="#C8E0C5"/>
<path fill-rule="evenodd" clip-rule="evenodd" d="M188.223 89.982V33.8454C187.952 33.3044 186.419 33.0564 185.687 33H166.749C162.42 33 161.113 36.4944 161 38.2417V85.5858C161 89.5086 164.72 90.7147 166.58 90.8275C171.483 90.8838 182.001 90.9627 184.841 90.8275C187.682 90.6922 188.279 90.2075 188.223 89.982ZM168.102 45.0051C168.102 43.9779 168.934 43.1452 169.962 43.1452H183.15C184.178 43.1452 185.01 43.9779 185.01 45.0051C185.01 46.0323 184.178 46.8651 183.15 46.8651H169.962C168.934 46.8651 168.102 46.0323 168.102 45.0051ZM169.962 49.9086C168.934 49.9086 168.102 50.7413 168.102 51.7686C168.102 52.7958 168.934 53.6285 169.962 53.6285H183.15C184.178 53.6285 185.01 52.7958 185.01 51.7686C185.01 50.7413 184.178 49.9086 183.15 49.9086H169.962ZM168.102 58.532C168.102 57.5048 168.934 56.6721 169.962 56.6721H183.15C184.178 56.6721 185.01 57.5048 185.01 58.532C185.01 59.5592 184.178 60.392 183.15 60.392H169.962C168.934 60.392 168.102 59.5592 168.102 58.532ZM183.319 67.1554C182.386 67.1554 181.629 67.9124 181.629 68.8463V75.6097C181.629 76.5435 182.386 77.3006 183.319 77.3006C184.253 77.3006 185.01 76.5435 185.01 75.6097V68.8463C185.01 67.9124 184.253 67.1554 183.319 67.1554Z" fill="#46714A"/>
<path fill-rule="evenodd" clip-rule="evenodd" d="M191.777 89.982V33.8454C192.048 33.3044 193.581 33.0564 194.313 33H213.251C217.58 33 218.887 36.4944 219 38.2417V85.5858C219 89.5086 215.28 90.7147 213.42 90.8275C208.517 90.8838 198 90.9627 195.159 90.8275C192.318 90.6922 191.721 90.2075 191.777 89.982ZM195.155 45.0051C195.155 43.9779 195.988 43.1452 197.015 43.1452H210.204C211.231 43.1452 212.064 43.9779 212.064 45.0051C212.064 46.0323 211.231 46.8651 210.204 46.8651H197.015C195.988 46.8651 195.155 46.0323 195.155 45.0051ZM197.015 49.9086C195.988 49.9086 195.155 50.7413 195.155 51.7686C195.155 52.7958 195.988 53.6285 197.015 53.6285H210.204C211.231 53.6285 212.064 52.7958 212.064 51.7686C212.064 50.7413 211.231 49.9086 210.204 49.9086H197.015ZM195.155 58.532C195.155 57.5048 195.988 56.6721 197.015 56.6721H210.204C211.231 56.6721 212.064 57.5048 212.064 58.532C212.064 59.5592 211.231 60.392 210.204 60.392H197.015C195.988 60.392 195.155 59.5592 195.155 58.532ZM210.373 67.1554C209.439 67.1554 208.682 67.9124 208.682 68.8463V75.6097C208.682 76.5435 209.439 77.3006 210.373 77.3006C211.307 77.3006 212.064 76.5435 212.064 75.6097V68.8463C212.064 67.9124 211.307 67.1554 210.373 67.1554Z" fill="#46714A"/>
<circle cx="60" cy="60" r="60" fill="#C8E0C5"/>
<path d="M30 68.6827C30 70.7278 32.5062 70.7378 33.7592 70.4872C33.7592 73.2941 33.8795 79.78 34.3607 83.2685C34.8419 86.7571 36.6664 87.0278 37.5185 86.727H40.8266C43.5934 87.3285 44.0846 84.672 43.9843 83.2685L44.5858 61.6154C44.7061 59.4501 45.4379 60.7132 45.7888 61.6154L48.6458 68.2316C49.2974 69.2341 51.172 70.6375 53.4576 68.2316C55.7432 65.8257 56.2143 66.6277 56.1642 67.3294C56.2645 72.1412 56.495 82.3062 56.6153 84.4715C56.7356 86.6368 58.2694 86.8774 59.0212 86.727H61.5775C63.0211 87.0879 63.3819 85.1732 63.3819 84.1708L63.833 67.6302C63.5323 66.6778 63.6827 65.4648 66.6901 68.2316C69.6974 70.9984 71.4518 68.783 71.953 67.3294L74.3589 61.3146C75.201 59.6305 75.4115 60.6129 75.4115 61.3146L76.1633 83.87C76.5242 86.3962 78.1181 86.8273 78.87 86.727H82.7796C85.1855 87.0879 85.7869 84.9727 85.7869 83.87L86.5388 70.6375C89.4259 70.7578 90.0474 69.0837 89.9973 68.2316V51.2399C89.0349 48.2325 86.4887 47.3804 85.3358 47.3303H78.1181C74.7498 47.9318 73.1058 50.4881 72.7048 51.691C71.6021 55.0493 69.2764 61.9462 68.7952 62.668C68.314 63.3897 67.492 62.9687 67.1412 62.668C66.8404 62.267 65.9382 61.2244 64.7353 60.2621C63.5323 59.2997 60.9259 59.4601 59.7731 59.6606C56.7657 59.42 55.6129 59.9613 55.4124 60.2621L52.8561 62.668C52.014 63.6303 51.202 62.7682 50.9013 62.2169C49.949 59.4601 47.8338 53.3451 46.9917 50.9392C46.1496 48.5333 43.6335 47.6311 42.4806 47.4807H34.5111C31.1428 47.4807 30.1002 50.9893 30 52.7436V68.6827Z" fill="#46714A"/>
<circle cx="39.1725" cy="39.9622" r="4.96218" fill="#46714A"/>
<circle cx="80.9751" cy="39.9622" r="4.96218" fill="#46714A"/>
<circle cx="59.9235" cy="54.3976" r="3.45849" fill="#46714A"/>
</svg>
