<svg width="490" height="190" viewBox="0 0 490 190" fill="none" xmlns="http://www.w3.org/2000/svg">
<path d="M15.544 67.056V72.08H17.016V68.16H24.952V72.08H26.488V67.056H15.544ZM17.64 68.976V69.92H24.328V68.976H17.64ZM17.64 70.736V71.728H24.296V70.736H17.64ZM13.864 72.608V73.84H28.088V72.608H13.864ZM20.952 74.656V75.856H26.504V74.656H20.952ZM16.088 74.704V75.792H19.896V74.704H16.088ZM16.088 76.688V77.776H19.896V76.688H16.088ZM22.84 75.744L21.624 76.096C22.696 78.672 24.696 80.528 27.48 81.344C27.688 80.992 28.072 80.432 28.392 80.16C25.736 79.52 23.768 77.888 22.84 75.744ZM26.152 74.656V74.896C25.352 77.504 23.064 79.376 20.52 80.128C20.792 80.416 21.16 80.96 21.336 81.312C24.168 80.32 26.6 78.288 27.608 74.976L26.68 74.608L26.424 74.656H26.152ZM13.672 79.12L13.816 80.416C15.48 80.24 17.752 80 19.944 79.744L19.912 78.56C17.608 78.784 15.24 79.008 13.672 79.12ZM19.112 73.008V81.344H20.552V73.008H19.112ZM15.16 73.024V79.488H16.552V73.024H15.16ZM38.552 71.856V73.264H44.392V71.856H38.552ZM29.912 68.144V69.392H37.048V68.144H29.912ZM29.752 74.496V75.792H37.08V74.496H29.752ZM29.672 71.76V73.024H37.304V71.76H29.672ZM41.272 72.464V81.28H42.744V72.464H41.272ZM30.872 69.712C31.128 70.352 31.352 71.216 31.432 71.76L32.696 71.408C32.616 70.88 32.376 70.048 32.088 69.424L30.872 69.712ZM34.856 69.408C34.648 70.144 34.28 71.248 33.976 71.936L35.208 72.208C35.528 71.568 35.896 70.592 36.232 69.68L34.856 69.408ZM42.92 66.72C41.768 67.232 39.752 67.728 37.976 68.032C38.152 68.352 38.36 68.864 38.44 69.184C40.328 68.912 42.52 68.448 44.12 67.84L42.92 66.72ZM32.296 66.752C32.616 67.44 33 68.368 33.144 68.944L34.728 68.512C34.568 67.936 34.152 67.04 33.8 66.384L32.296 66.752ZM37.976 68.032V73.664C37.976 75.776 37.864 78.496 36.584 80.384C36.904 80.544 37.496 81.024 37.752 81.296C39.176 79.216 39.384 75.984 39.384 73.664V68.032H37.976ZM34.904 76.896C35.368 77.664 35.928 78.736 36.184 79.408L37.24 78.768C36.984 78.128 36.424 77.12 35.912 76.352L34.904 76.896ZM31.048 76.48C30.712 77.52 30.168 78.624 29.576 79.376C29.864 79.536 30.376 79.888 30.6 80.08C31.192 79.264 31.848 77.968 32.232 76.832L31.048 76.48ZM32.872 72.448V81.264H34.344V72.448H32.872ZM51.688 71.04V72.416H58.504V71.04H51.688ZM50.984 71.04V75.696C50.984 77.264 50.92 79.2 50.136 80.592C50.472 80.752 51.08 81.2 51.32 81.44C52.248 79.888 52.392 77.504 52.392 75.696V71.04H50.984ZM52.504 76.928L52.984 78.192C54.536 77.824 56.584 77.312 58.488 76.816L58.344 75.632C56.216 76.128 53.976 76.64 52.504 76.928ZM52.76 74.192C54.088 74.512 55.784 75.136 56.648 75.632L57.288 74.576C56.392 74.096 54.68 73.536 53.368 73.248L52.76 74.192ZM58.648 66.912C58.28 67.872 57.608 69.152 57.08 69.968L58.376 70.48C58.92 69.696 59.56 68.544 60.104 67.456L58.648 66.912ZM50.552 67.584C51.208 68.512 51.864 69.76 52.104 70.576L53.464 69.92C53.208 69.104 52.504 67.904 51.832 67.008L50.552 67.584ZM58.056 71.04V79.584C58.056 79.808 57.976 79.872 57.72 79.888C57.48 79.904 56.632 79.904 55.8 79.856C55.992 80.256 56.2 80.896 56.264 81.296C57.48 81.296 58.296 81.28 58.84 81.04C59.368 80.8 59.528 80.384 59.528 79.616V71.04H58.056ZM54.536 66.48V71.936H56.056V66.48H54.536ZM46.392 67.792C47.336 68.352 48.648 69.168 49.288 69.68L50.216 68.464C49.528 68 48.2 67.232 47.272 66.72L46.392 67.792ZM45.496 72.208C46.456 72.72 47.816 73.488 48.472 73.936L49.304 72.688C48.616 72.24 47.24 71.536 46.312 71.088L45.496 72.208ZM46.04 80.128L47.32 81.152C48.264 79.632 49.336 77.712 50.184 76.016L49.08 75.024C48.136 76.848 46.888 78.912 46.04 80.128ZM65.464 71.28H72.424V72.336H65.464V71.28ZM65.464 73.456H72.424V74.512H65.464V73.456ZM65.464 69.136H72.424V70.176H65.464V69.136ZM64.008 67.952V75.696H73.944V67.952H64.008ZM68.248 66.336C68.12 66.88 67.864 67.632 67.64 68.192L69.016 68.48C69.304 68 69.704 67.328 70.056 66.592L68.248 66.336ZM65.128 76.736V79.168C65.128 80.656 65.64 81.072 67.688 81.072C68.104 81.072 70.648 81.072 71.096 81.072C72.76 81.072 73.224 80.56 73.416 78.432C73 78.352 72.344 78.128 72.008 77.888C71.928 79.472 71.8 79.68 70.984 79.68C70.376 79.68 68.248 79.68 67.8 79.68C66.808 79.68 66.648 79.616 66.648 79.152V76.736H65.128ZM67.656 76.192C68.44 76.944 69.336 78 69.704 78.72L70.936 77.984C70.536 77.264 69.624 76.24 68.824 75.536L67.656 76.192ZM73.048 76.896C73.768 77.936 74.52 79.36 74.776 80.256L76.216 79.632C75.928 78.704 75.144 77.344 74.408 76.336L73.048 76.896ZM63.208 76.608C62.84 77.664 62.216 79.024 61.608 79.92L63 80.592C63.576 79.648 64.12 78.208 64.536 77.168L63.208 76.608Z" fill="black"/>
<path d="M63.7163 39.3682L61.2163 35.2182C60.6913 34.2932 60.2163 32.5432 60.2163 31.5182V25.1932C60.2133 22.4033 59.4205 19.6713 57.9295 17.3132C56.4386 14.955 54.3104 13.0673 51.7913 11.8682C51.1483 10.7266 50.2105 9.77858 49.0759 9.12331C47.9413 8.46804 46.6515 8.12955 45.3413 8.14322C42.6163 8.14322 40.1663 9.61822 38.8663 11.9432C33.9913 14.3682 30.6163 19.3932 30.6163 25.1932V31.5182C30.6163 32.5432 30.1413 34.2932 29.6163 35.1932L27.0913 39.3682C26.0913 41.0432 25.8663 42.8932 26.4913 44.5932C27.0913 46.2682 28.5163 47.5682 30.3663 48.1932C35.2163 49.8432 40.3163 50.6432 45.4163 50.6432C50.5163 50.6432 55.6163 49.8432 60.4663 48.2182C62.2163 47.6432 63.5663 46.3182 64.2163 44.5932C64.8663 42.8682 64.6913 40.9682 63.7163 39.3682ZM52.4413 53.1682C51.9156 54.6236 50.9545 55.8818 49.6887 56.7719C48.4229 57.662 46.9137 58.1408 45.3663 58.1432C43.3913 58.1432 41.4413 57.3432 40.0663 55.9182C39.2663 55.1682 38.6663 54.1682 38.3163 53.1432C38.6413 53.1932 38.9663 53.2182 39.3163 53.2682C39.8913 53.3432 40.4913 53.4182 41.0913 53.4682C42.5163 53.5932 43.9663 53.6682 45.4163 53.6682C46.8413 53.6682 48.2663 53.5932 49.6663 53.4682C50.1913 53.4182 50.7163 53.3932 51.2163 53.3182L52.4413 53.1682Z" fill="#649D6A"/>
<path d="M134.075 11.925C134.52 11.68 135 12.055 135 12.5675V46.4575C135 47.015 134.617 47.4875 134.125 47.7475C134.108 47.7557 134.092 47.764 134.075 47.7725L128.2 51.1225C124.1 53.4725 120.725 51.5225 120.725 46.7725V22.45C120.725 20.875 121.85 18.925 123.25 18.125L134.075 11.925ZM151.805 18.2575C152.013 18.3607 152.189 18.52 152.311 18.7174C152.434 18.9148 152.5 19.1425 152.5 19.375V52.2575C152.5 52.4689 152.446 52.6768 152.344 52.8618C152.241 53.0467 152.094 53.2027 151.914 53.3151C151.735 53.4275 151.531 53.4926 151.32 53.5044C151.109 53.5162 150.898 53.4742 150.707 53.3825L140.082 48.265C139.871 48.163 139.692 48.0033 139.567 47.8043C139.442 47.6053 139.375 47.3751 139.375 47.14V14.1175C139.375 13.9046 139.429 13.6951 139.532 13.5089C139.635 13.3227 139.784 13.166 139.965 13.0535C140.146 12.9411 140.352 12.8767 140.565 12.8665C140.777 12.8562 140.989 12.9005 141.18 12.995L151.805 18.2575ZM170 19.225V43.55C170 45.125 168.875 47.075 167.475 47.875L158.747 52.8775C158.557 52.9867 158.342 53.0439 158.123 53.0435C157.903 53.0431 157.688 52.985 157.498 52.8751C157.309 52.7651 157.151 52.6072 157.042 52.4172C156.932 52.2272 156.875 52.0117 156.875 51.7925V18.825C156.875 18.6047 156.933 18.3883 157.044 18.1977C157.155 18.0072 157.314 17.8493 157.505 17.74L162.525 14.875C166.625 12.525 170 14.475 170 19.225Z" fill="#649D6A"/>
<path d="M114.024 70.352V71.856H127.992V70.352H114.024ZM120.184 66.512V81.344H121.784V66.512H120.184ZM119.848 71.152C118.536 74.064 115.992 77.008 113.352 78.448C113.704 78.752 114.216 79.344 114.488 79.728C117.208 78.048 119.704 74.944 121.176 71.6L119.848 71.152ZM122.088 71.2L120.808 71.648C122.312 74.864 124.824 78 127.464 79.68C127.72 79.264 128.248 78.672 128.616 78.368C126.024 76.944 123.416 74.016 122.088 71.2ZM130.024 70.352V71.856H143.992V70.352H130.024ZM136.184 66.512V81.344H137.784V66.512H136.184ZM135.848 71.152C134.536 74.064 131.992 77.008 129.352 78.448C129.704 78.752 130.216 79.344 130.488 79.728C133.208 78.048 135.704 74.944 137.176 71.6L135.848 71.152ZM138.088 71.2L136.808 71.648C138.312 74.864 140.824 78 143.464 79.68C143.72 79.264 144.248 78.672 144.616 78.368C142.024 76.944 139.416 74.016 138.088 71.2ZM145.768 70.288V71.728H150.664V70.288H145.768ZM147.608 66.704V77.184H149.032V66.704H147.608ZM145.448 77.216L146.056 78.736C147.48 78.096 149.288 77.264 150.968 76.464L150.632 75.12C148.728 75.92 146.744 76.752 145.448 77.216ZM155.032 66.496V77.712H156.456V66.496H155.032ZM150.136 73.024L150.696 74.368L159.16 70.736L158.616 69.44L150.136 73.024ZM151.8 68.016V78.56C151.8 80.512 152.36 81.008 154.36 81.008C154.808 81.008 157.608 81.008 158.072 81.008C159.832 81.008 160.312 80.288 160.52 78.048C160.104 77.968 159.512 77.728 159.176 77.488C159.048 79.248 158.888 79.648 157.976 79.648C157.4 79.648 154.952 79.648 154.44 79.648C153.416 79.648 153.24 79.488 153.24 78.576V68.016H151.8ZM158.232 69.856C158.152 72.08 157.96 75.056 157.672 76.768L158.904 77.12C159.32 75.248 159.56 72.304 159.688 70.048L159.752 69.808L158.616 69.44L158.056 69.856H158.232ZM167 69.84H170.888V70.704H167V69.84ZM165.784 69.008V71.536H172.184V69.008H165.784ZM166.424 74.512H171.464V77.872H166.424V74.512ZM165.24 73.632V78.752H172.712V73.632H165.24ZM168.152 75.808H169.704V76.576H168.152V75.808ZM167.288 75.104V77.28H170.632V75.104H167.288ZM164.312 72.16V73.04H173.704V72.16H164.312ZM168.28 70.992V72.56H169.576V70.992H168.28ZM162.232 67.104V81.344H163.656V68.368H174.328V81.344H175.8V67.104H162.232ZM163.128 79.472V80.736H175.08V79.472H163.128Z" fill="black"/>
<path d="M214.024 70.352V71.856H227.992V70.352H214.024ZM220.184 66.512V81.344H221.784V66.512H220.184ZM219.848 71.152C218.536 74.064 215.992 77.008 213.352 78.448C213.704 78.752 214.216 79.344 214.488 79.728C217.208 78.048 219.704 74.944 221.176 71.6L219.848 71.152ZM222.088 71.2L220.808 71.648C222.312 74.864 224.824 78 227.464 79.68C227.72 79.264 228.248 78.672 228.616 78.368C226.024 76.944 223.416 74.016 222.088 71.2ZM230.024 70.352V71.856H243.992V70.352H230.024ZM236.184 66.512V81.344H237.784V66.512H236.184ZM235.848 71.152C234.536 74.064 231.992 77.008 229.352 78.448C229.704 78.752 230.216 79.344 230.488 79.728C233.208 78.048 235.704 74.944 237.176 71.6L235.848 71.152ZM238.088 71.2L236.808 71.648C238.312 74.864 240.824 78 243.464 79.68C243.72 79.264 244.248 78.672 244.616 78.368C242.024 76.944 239.416 74.016 238.088 71.2ZM246.024 76.912V78.016H253.4V76.912H246.024ZM245.624 69.232V70.368H253.624V69.232H245.624ZM248.968 67.92V79.568H250.344V67.92H248.968ZM245.576 79.504L245.768 80.8C247.832 80.592 250.728 80.288 253.448 79.968L253.432 78.8C250.568 79.088 247.544 79.344 245.576 79.504ZM247.304 74.112H252.072V75.088H247.304V74.112ZM247.304 72.208H252.072V73.168H247.304V72.208ZM246.072 71.216V76.08H253.336V71.216H246.072ZM252.68 66.624C250.968 67.008 248.12 67.296 245.736 67.408C245.88 67.712 246.024 68.192 246.088 68.512C248.488 68.448 251.432 68.192 253.384 67.776L252.68 66.624ZM253.544 70.192V71.584H259.224V70.192H253.544ZM258.616 70.192V70.528C258.472 76.88 258.312 79.168 257.928 79.664C257.784 79.872 257.624 79.92 257.368 79.92C257.064 79.92 256.392 79.904 255.656 79.84C255.896 80.256 256.056 80.88 256.088 81.296C256.84 81.328 257.592 81.328 258.072 81.264C258.568 81.184 258.92 81.04 259.224 80.56C259.752 79.872 259.896 77.584 260.072 70.896C260.072 70.72 260.072 70.192 260.072 70.192H258.616ZM255.304 66.736C255.288 72.928 255.416 77.744 251.88 80.336C252.232 80.592 252.744 81.104 252.968 81.456C256.728 78.576 256.744 73.296 256.76 66.736H255.304ZM269.416 66.496C268.904 68.896 267.976 71.2 266.664 72.624C266.984 72.816 267.576 73.248 267.816 73.488C269.144 71.888 270.2 69.408 270.792 66.768L269.416 66.496ZM274.872 69.104V69.44C274.568 76.368 274.232 78.896 273.736 79.472C273.544 79.696 273.4 79.76 273.144 79.76C272.84 79.76 272.232 79.744 271.576 79.68C271.816 80.096 271.96 80.736 271.992 81.168C272.696 81.216 273.384 81.216 273.816 81.152C274.328 81.072 274.648 80.912 275 80.432C275.624 79.632 275.944 77.072 276.28 69.824C276.296 69.632 276.312 69.104 276.312 69.104H274.872ZM269.56 69.104L268.888 70.512H275.496V69.104H269.56ZM270.968 69.552C270.328 72.304 268.856 75.36 266.984 76.832C267.384 77.056 267.864 77.408 268.168 77.696C269.944 76.096 271.416 72.912 272.088 70.112L270.968 69.552ZM273.224 69.68C272.472 73.872 270.744 78.144 267.96 80.144C268.376 80.352 268.92 80.736 269.208 81.04C271.88 78.864 273.624 74.48 274.424 70.24L273.224 69.68ZM261.496 75.312L261.88 76.768C263.528 76.272 265.704 75.6 267.72 74.96L267.528 73.632C265.336 74.272 263.032 74.944 261.496 75.312ZM264.44 66.512V81.344H265.832V66.512H264.44ZM262.392 67.424C262.232 69.36 261.928 71.376 261.368 72.704C261.672 72.848 262.248 73.2 262.472 73.376C263.064 71.952 263.464 69.76 263.688 67.632L262.392 67.424ZM262.648 69.696L262.376 71.152H267.352V69.696H262.648Z" fill="black"/>
<path d="M262.7 39.3C261.225 30.475 252.75 23.3 243.8 23.3C234.075 23.3 225.525 31.175 224.7 40.875C224.375 44.625 225.575 48.175 228.05 50.85C230.5 53.525 233.95 55 237.7 55H249.4C253.625 55 257.325 53.35 259.85 50.375C262.375 47.4 263.375 43.45 262.7 39.3ZM240.7 19.65C242.643 19.65 244.506 18.8783 245.88 17.5046C247.253 16.1309 248.025 14.2677 248.025 12.325C248.025 10.3823 247.253 8.51915 245.88 7.14544C244.506 5.77174 242.643 5 240.7 5C238.757 5 236.894 5.77174 235.52 7.14544C234.147 8.51915 233.375 10.3823 233.375 12.325C233.375 14.2677 234.147 16.1309 235.52 17.5046C236.894 18.8783 238.757 19.65 240.7 19.65ZM257.35 22.57C258.968 22.57 260.519 21.9273 261.663 20.7834C262.807 19.6394 263.45 18.0878 263.45 16.47C263.45 14.8522 262.807 13.3006 261.663 12.1566C260.519 11.0127 258.968 10.37 257.35 10.37C255.732 10.37 254.181 11.0127 253.037 12.1566C251.893 13.3006 251.25 14.8522 251.25 16.47C251.25 18.0878 251.893 19.6394 253.037 20.7834C254.181 21.9273 255.732 22.57 257.35 22.57ZM266.375 32.3275C267.015 32.3275 267.649 32.2014 268.241 31.9564C268.832 31.7114 269.369 31.3523 269.822 30.8996C270.275 30.447 270.634 29.9095 270.879 29.3181C271.124 28.7266 271.25 28.0927 271.25 27.4525C271.25 26.8123 271.124 26.1784 270.879 25.5869C270.634 24.9955 270.275 24.458 269.822 24.0054C269.369 23.5527 268.832 23.1936 268.241 22.9486C267.649 22.7036 267.015 22.5775 266.375 22.5775C265.082 22.5775 263.842 23.0911 262.928 24.0054C262.014 24.9196 261.5 26.1596 261.5 27.4525C261.5 28.7454 262.014 29.9854 262.928 30.8996C263.842 31.8139 265.082 32.3275 266.375 32.3275ZM224.85 27.455C225.651 27.455 226.444 27.2972 227.184 26.9907C227.924 26.6841 228.597 26.2348 229.163 25.6684C229.73 25.1019 230.179 24.4295 230.486 23.6894C230.792 22.9493 230.95 22.1561 230.95 21.355C230.95 20.5539 230.792 19.7607 230.486 19.0206C230.179 18.2805 229.73 17.6081 229.163 17.0417C228.597 16.4752 227.924 16.0259 227.184 15.7193C226.444 15.4128 225.651 15.255 224.85 15.255C223.232 15.255 221.681 15.8977 220.537 17.0417C219.393 18.1856 218.75 19.7372 218.75 21.355C218.75 22.9728 219.393 24.5244 220.537 25.6684C221.681 26.8123 223.232 27.455 224.85 27.455Z" fill="#649D6A"/>
<path d="M370 29.875C371.025 29.875 371.875 29.025 371.875 28V25.5C371.875 14.475 368.525 11.125 357.5 11.125H341.875V16.75C341.875 17.775 341.025 18.625 340 18.625C338.975 18.625 338.125 17.775 338.125 16.75V11.125H332.5C321.475 11.125 318.125 14.475 318.125 25.5V26.75C318.125 27.775 318.975 28.625 320 28.625C322.4 28.625 324.375 30.6 324.375 33C324.375 35.4 322.4 37.375 320 37.375C318.975 37.375 318.125 38.225 318.125 39.25V40.5C318.125 51.525 321.475 54.875 332.5 54.875H338.125V49.25C338.125 48.225 338.975 47.375 340 47.375C341.025 47.375 341.875 48.225 341.875 49.25V54.875H357.5C368.525 54.875 371.875 51.525 371.875 40.5C371.875 39.475 371.025 38.625 370 38.625C367.6 38.625 365.625 36.65 365.625 34.25C365.625 31.85 367.6 29.875 370 29.875ZM341.875 38.425C341.875 39.45 341.025 40.3 340 40.3C338.975 40.3 338.125 39.45 338.125 38.425V27.575C338.125 26.55 338.975 25.7 340 25.7C341.025 25.7 341.875 26.55 341.875 27.575V38.425Z" fill="#649D6A"/>
<path d="M323.192 78.448C324.488 79.2 326.136 80.304 326.904 81.024L328.104 80.16C327.224 79.408 325.576 78.368 324.296 77.696L323.192 78.448ZM315.736 74.048V75.232H326.28V74.048H315.736ZM313.816 76.144V77.36H328.216V76.144H313.816ZM314.008 67.088V68.304H327.896V67.088H314.008ZM317.16 77.648C316.36 78.592 315 79.488 313.688 80.064C314.024 80.288 314.584 80.8 314.824 81.072C316.12 80.384 317.608 79.28 318.552 78.128L317.16 77.648ZM316.36 70.48H325.592V72.048H316.36V70.48ZM314.952 69.376V73.184H327.096V69.376H314.952ZM318.44 67.552V72.688H319.832V67.552H318.44ZM321.992 67.552V72.688H323.416V67.552H321.992ZM320.232 76.464V81.376H321.736V76.464H320.232ZM333.992 67.264V68.4H344.28V67.264H333.992ZM335.656 70.16H342.408V71.504H335.656V70.16ZM334.344 69.232V72.432H343.784V69.232H334.344ZM337.048 67.664V71.888H338.264V67.664H337.048ZM339.72 67.664V71.888H340.968V67.664H339.72ZM336.04 75.648H342.136V76.432H336.04V75.648ZM336.04 77.296H342.136V78.096H336.04V77.296ZM336.04 74.016H342.136V74.784H336.04V74.016ZM334.632 73.104V78.992H343.608V73.104H334.632ZM339.752 79.84C341.096 80.304 342.504 80.928 343.304 81.392L344.6 80.528C343.672 80.064 342.104 79.44 340.728 78.992L339.752 79.84ZM337.224 78.96C336.376 79.504 334.84 80.048 333.448 80.352C333.736 80.608 334.088 81.072 334.264 81.376C335.688 81.04 337.288 80.448 338.296 79.728L337.224 78.96ZM332.552 66.56C331.816 68.976 330.584 71.392 329.24 72.944C329.48 73.344 329.864 74.176 329.992 74.544C331.592 72.656 333.048 69.744 333.96 66.96L332.552 66.56ZM331.272 70.688V81.344H332.712V69.328L332.68 69.296L331.272 70.688ZM349.288 75.008H356.872V75.92H349.288V75.008ZM349.288 76.832H356.872V77.776H349.288V76.832ZM349.288 73.184H356.872V74.096H349.288V73.184ZM347.816 72.24V78.72H358.392V72.24H347.816ZM354.408 79.488C356.072 80.064 357.768 80.8 358.744 81.312L360.104 80.48C358.984 79.952 357.112 79.232 355.416 78.672L354.408 79.488ZM350.472 78.72C349.352 79.344 347.432 79.904 345.768 80.24C346.104 80.496 346.632 81.072 346.888 81.36C348.504 80.912 350.552 80.144 351.848 79.344L350.472 78.72ZM352.312 67.536V68.672H358.856V67.536H352.312ZM352.52 66.432C352.152 67.568 351.48 68.672 350.648 69.408C350.968 69.584 351.528 69.952 351.784 70.176C352.632 69.36 353.416 68.064 353.848 66.736L352.52 66.432ZM354.296 68.336V68.864C354.296 69.616 353.864 70.576 349.8 71.008C350.072 71.296 350.456 71.824 350.6 72.16C355.112 71.552 355.688 70.112 355.688 68.928V68.336H354.296ZM355.528 69.152L354.456 69.376C355.384 70.896 357.176 71.792 359.56 72.112C359.736 71.728 360.104 71.184 360.408 70.896C358.152 70.736 356.344 70.144 355.528 69.152ZM346.056 67.376V68.528H350.024V67.376H346.056ZM345.704 69.872V71.056H350.424V69.872H345.704ZM358.344 67.536V67.728C358.072 68.416 357.624 69.248 357.256 69.792L358.424 70.224C358.904 69.616 359.432 68.656 359.832 67.792L358.808 67.472L358.584 67.536H358.344ZM362.328 71.36V72.528H366.92V71.36H362.328ZM362.328 73.488V74.656H366.952V73.488H362.328ZM361.688 69.184V70.416H367.512V69.184H361.688ZM362.936 75.664V76.896H365.736V79.184H362.936V80.416H366.952V75.664H362.936ZM362.328 75.664V81.136H363.512V75.664H362.328ZM363.352 67.008C363.736 67.68 364.232 68.624 364.424 69.216L365.56 68.528C365.32 67.952 364.856 67.088 364.424 66.432L363.352 67.008ZM367.512 73.344V74.768H372.808V73.344H367.512ZM373.304 67.376C373.304 74.288 373.144 80.496 374.824 81.104C375.672 81.456 376.328 80.96 376.536 78.656C376.312 78.432 375.928 77.872 375.704 77.488C375.64 78.592 375.544 79.616 375.448 79.584C374.68 79.376 374.696 73.344 374.808 67.376H373.304ZM369.512 68.304V81.344H370.936V68.304H369.512ZM367.704 67.376V68.816H373.992V67.376H367.704Z" fill="black"/>
<path d="M457.5 11.75H432.5C425 11.75 420 15.5 420 24.25V41.75C420 50.5 425 54.25 432.5 54.25H457.5C465 54.25 470 50.5 470 41.75V24.25C470 15.5 465 11.75 457.5 11.75ZM458.675 26.975L450.85 33.225C449.2 34.55 447.1 35.2 445 35.2C442.9 35.2 440.775 34.55 439.15 33.225L431.325 26.975C430.943 26.6575 430.698 26.2043 430.642 25.7104C430.586 25.2164 430.723 24.72 431.025 24.325C431.675 23.525 432.85 23.375 433.65 24.025L441.475 30.275C443.375 31.8 446.6 31.8 448.5 30.275L456.325 24.025C457.125 23.375 458.325 23.5 458.95 24.325C459.6 25.125 459.475 26.325 458.675 26.975Z" fill="#649D6A"/>
<path d="M415.736 68.152V69.512H421.096V68.152H415.736ZM417.304 71.528V72.792H420.072V71.528H417.304ZM417.304 74.808V76.072H420.072V74.808H417.304ZM416.44 68.856V79.016H417.672V68.856H416.44ZM419.24 68.856V82.36H420.52V68.856H419.24ZM415.528 78.728L415.816 80.072C417.096 79.848 418.68 79.56 420.248 79.272L420.152 78.024C418.44 78.312 416.728 78.568 415.528 78.728ZM423.96 72.696C424.248 73.56 424.568 74.728 424.728 75.416L425.656 75.112C425.528 74.456 425.176 73.304 424.856 72.472L423.96 72.696ZM421.24 72.152C421.24 71.848 421.944 71.416 421.944 71.416V71.384C422.664 70.616 423.48 69.336 424.104 68.072L422.984 67.592C422.568 68.776 421.768 69.928 421.56 70.232C421.32 70.552 421.112 70.728 420.888 70.792C421.016 71.16 421.192 71.848 421.24 72.152ZM421.24 72.152C421.448 72.04 421.848 71.96 423.704 71.816C423.736 71.576 423.848 71.144 423.928 70.856L421.72 70.952L421.24 71.304V72.152ZM421.144 75.192C421.144 74.888 421.848 74.488 421.848 74.488V74.44C422.984 73.352 424.184 71.72 425.208 70.024L424.184 69.48C423.352 71.064 422.12 72.68 421.736 73.08C421.384 73.496 421.08 73.784 420.808 73.848C420.936 74.216 421.08 74.904 421.144 75.192ZM421.144 75.192C421.4 75.032 421.864 74.936 425.096 74.552C425.064 74.312 425 73.896 425 73.592L421.624 73.912L421.128 74.28L421.144 75.192ZM428.68 72.568C429.032 73.448 429.448 74.616 429.64 75.32L430.568 74.952C430.376 74.28 429.928 73.128 429.56 72.28L428.68 72.568ZM425.816 72.072C425.816 71.768 426.52 71.352 426.52 71.352V71.32C427.192 70.584 427.96 69.4 428.552 68.2L427.544 67.688C427.112 68.824 426.344 69.976 426.12 70.264C425.912 70.568 425.688 70.744 425.48 70.792C425.608 71.128 425.752 71.784 425.816 72.072ZM425.816 72.072C426.008 71.96 426.392 71.88 428.216 71.736C428.248 71.496 428.344 71.064 428.44 70.776L426.296 70.872L425.816 71.208V72.072ZM425.976 75.144C425.976 74.84 426.76 74.424 426.76 74.424V74.408C427.768 73.32 428.824 71.672 429.688 70.008L428.68 69.464C427.992 71.064 426.856 72.68 426.52 73.08C426.2 73.512 425.912 73.8 425.64 73.848C425.784 74.2 425.928 74.856 425.976 75.144ZM425.976 75.144C426.248 74.984 426.712 74.872 429.944 74.392C429.88 74.168 429.848 73.736 429.832 73.448L426.456 73.864L425.96 74.232L425.976 75.144ZM423.896 75.48V77.896C423.896 79.144 423.608 80.472 421.48 81.416C421.72 81.624 422.152 82.168 422.296 82.472C424.68 81.352 425.176 79.512 425.176 77.912V75.48H423.896ZM421.896 77.896V79.192H424.696V77.896H421.896ZM426.072 75.464V82.376H427.384V75.464H426.072ZM421.56 75.48V79.192H422.792V75.48H421.56ZM428.504 75.592V79.752H429.736V75.592H428.504ZM426.808 77.864V79.176H429.192V77.864H426.808ZM439.544 80.44V81.768H444.808V80.44H439.544ZM440.168 69.144V70.424H444.6V69.144H440.168ZM438.664 76.456V82.312H440.072V77.784H444.024V82.28H445.496V76.456H438.664ZM444.28 69.144V69.416C443.16 72.36 440.216 74.872 437.32 75.976C437.64 76.248 438.024 76.792 438.216 77.16C441.352 75.8 444.424 73.208 445.8 69.576L444.808 69.08L444.536 69.144H444.28ZM440.616 67.448C439.896 69.272 438.616 71 437.16 72.072C437.496 72.312 438.04 72.84 438.28 73.128C439.768 71.88 441.192 69.928 442.056 67.848L440.616 67.448ZM440.248 70.136L439.176 70.824C440.248 73.016 442.552 75.688 445.688 76.968C445.912 76.6 446.36 75.992 446.664 75.704C443.544 74.616 441.256 72.168 440.248 70.136ZM435.288 73.96C435.672 75.08 436.056 76.536 436.184 77.4L437.352 77.032C437.224 76.184 436.792 74.76 436.392 73.672L435.288 73.96ZM434.056 78.088C434.248 79.192 434.424 80.632 434.44 81.576L435.624 81.352C435.576 80.392 435.384 78.984 435.176 77.88L434.056 78.088ZM432.232 77.912C432.104 79.208 431.88 80.648 431.512 81.608C431.832 81.688 432.44 81.896 432.712 82.04C433.048 81.048 433.336 79.528 433.496 78.12L432.232 77.912ZM431.944 73.656C431.944 73.368 432.808 72.92 432.808 72.92V72.888C433.88 71.624 435 69.784 435.832 68.04L434.488 67.464C433.832 69.192 432.728 71 432.392 71.448C432.056 71.944 431.768 72.248 431.48 72.328C431.64 72.696 431.864 73.352 431.944 73.656ZM431.944 73.656C432.216 73.512 432.696 73.416 435.272 73.144C435.272 72.856 435.336 72.36 435.4 72.008L432.536 72.232L431.912 72.632L431.944 73.656ZM432.056 77.304C432.056 77.032 432.952 76.584 432.952 76.584V76.552C434.488 75 436.072 72.808 437.304 70.648L436.008 69.896C435 72.056 433.32 74.312 432.808 74.888C432.312 75.464 431.944 75.848 431.576 75.928C431.736 76.328 431.976 77.016 432.056 77.304ZM432.056 77.304C432.392 77.128 432.92 76.984 436.504 76.424C436.504 76.152 436.52 75.64 436.568 75.272L432.632 75.816L431.992 76.248L432.056 77.304ZM435.704 77.8C436.04 78.76 436.408 80.024 436.552 80.856L437.656 80.472C437.496 79.656 437.128 78.424 436.76 77.48L435.704 77.8ZM458.264 68.712C459.16 69.528 460.216 70.664 460.664 71.432L461.896 70.568C461.4 69.816 460.312 68.712 459.4 67.928L458.264 68.712ZM447.848 72.152V73.592H462.168V72.152H447.848ZM447.576 76.776L447.976 78.296C450.024 77.864 452.824 77.256 455.432 76.664L455.32 75.304C452.52 75.864 449.48 76.456 447.576 76.776ZM451.096 69.272V80.488C451.096 80.76 451 80.84 450.728 80.84C450.44 80.856 449.496 80.872 448.52 80.824C448.744 81.256 449 81.944 449.064 82.36C450.392 82.36 451.288 82.312 451.848 82.072C452.424 81.832 452.616 81.4 452.616 80.504V69.272H451.096ZM454.248 67.656C452.664 68.216 450.104 68.744 447.864 69.064C448.04 69.416 448.232 69.976 448.312 70.328C450.616 70.04 453.336 69.576 455.288 68.936L454.248 67.656ZM455.832 67.624C455.896 75.064 457.24 82.408 460.456 82.408C461.768 82.408 462.28 81.656 462.536 78.936C462.12 78.776 461.592 78.424 461.272 78.072C461.176 80.072 460.984 80.872 460.6 80.872C458.856 80.872 457.352 74.584 457.416 67.624H455.832ZM460.184 74.232C458.744 76.92 456.136 79.256 453.32 80.584C453.704 80.92 454.136 81.416 454.36 81.784C457.288 80.248 459.912 77.752 461.512 74.808L460.184 74.232ZM468.92 70.776V71.896H471.96V70.776H468.92ZM473.88 70.776V71.896H476.952V70.776H473.88ZM476.488 68.392V80.488C476.488 80.792 476.376 80.888 476.072 80.888C475.752 80.904 474.632 80.92 473.56 80.872C473.768 81.256 474.008 81.928 474.072 82.328C475.576 82.328 476.552 82.312 477.144 82.056C477.736 81.832 477.928 81.4 477.928 80.504V68.392H476.488ZM468.04 68.392V82.312H469.448V68.392H468.04ZM469 68.392V69.576H471.288V73.192H469V74.36H472.456V68.392H469ZM477.208 68.392H473.304V74.36H477.208V73.192H474.52V69.576H477.208V68.392ZM466.552 67.56C465.816 69.976 464.584 72.392 463.24 73.944C463.48 74.344 463.864 75.176 463.992 75.544C465.592 73.656 467.048 70.744 467.96 67.96L466.552 67.56ZM465.272 71.688V82.344H466.712V70.328L466.68 70.296L465.272 71.688Z" fill="black"/>
<path d="M15.544 167.056V172.08H17.016V168.16H24.952V172.08H26.488V167.056H15.544ZM17.64 168.976V169.92H24.328V168.976H17.64ZM17.64 170.736V171.728H24.296V170.736H17.64ZM13.864 172.608V173.84H28.088V172.608H13.864ZM20.952 174.656V175.856H26.504V174.656H20.952ZM16.088 174.704V175.792H19.896V174.704H16.088ZM16.088 176.688V177.776H19.896V176.688H16.088ZM22.84 175.744L21.624 176.096C22.696 178.672 24.696 180.528 27.48 181.344C27.688 180.992 28.072 180.432 28.392 180.16C25.736 179.52 23.768 177.888 22.84 175.744ZM26.152 174.656V174.896C25.352 177.504 23.064 179.376 20.52 180.128C20.792 180.416 21.16 180.96 21.336 181.312C24.168 180.32 26.6 178.288 27.608 174.976L26.68 174.608L26.424 174.656H26.152ZM13.672 179.12L13.816 180.416C15.48 180.24 17.752 180 19.944 179.744L19.912 178.56C17.608 178.784 15.24 179.008 13.672 179.12ZM19.112 173.008V181.344H20.552V173.008H19.112ZM15.16 173.024V179.488H16.552V173.024H15.16ZM38.552 171.856V173.264H44.392V171.856H38.552ZM29.912 168.144V169.392H37.048V168.144H29.912ZM29.752 174.496V175.792H37.08V174.496H29.752ZM29.672 171.76V173.024H37.304V171.76H29.672ZM41.272 172.464V181.28H42.744V172.464H41.272ZM30.872 169.712C31.128 170.352 31.352 171.216 31.432 171.76L32.696 171.408C32.616 170.88 32.376 170.048 32.088 169.424L30.872 169.712ZM34.856 169.408C34.648 170.144 34.28 171.248 33.976 171.936L35.208 172.208C35.528 171.568 35.896 170.592 36.232 169.68L34.856 169.408ZM42.92 166.72C41.768 167.232 39.752 167.728 37.976 168.032C38.152 168.352 38.36 168.864 38.44 169.184C40.328 168.912 42.52 168.448 44.12 167.84L42.92 166.72ZM32.296 166.752C32.616 167.44 33 168.368 33.144 168.944L34.728 168.512C34.568 167.936 34.152 167.04 33.8 166.384L32.296 166.752ZM37.976 168.032V173.664C37.976 175.776 37.864 178.496 36.584 180.384C36.904 180.544 37.496 181.024 37.752 181.296C39.176 179.216 39.384 175.984 39.384 173.664V168.032H37.976ZM34.904 176.896C35.368 177.664 35.928 178.736 36.184 179.408L37.24 178.768C36.984 178.128 36.424 177.12 35.912 176.352L34.904 176.896ZM31.048 176.48C30.712 177.52 30.168 178.624 29.576 179.376C29.864 179.536 30.376 179.888 30.6 180.08C31.192 179.264 31.848 177.968 32.232 176.832L31.048 176.48ZM32.872 172.448V181.264H34.344V172.448H32.872ZM51.688 171.04V172.416H58.504V171.04H51.688ZM50.984 171.04V175.696C50.984 177.264 50.92 179.2 50.136 180.592C50.472 180.752 51.08 181.2 51.32 181.44C52.248 179.888 52.392 177.504 52.392 175.696V171.04H50.984ZM52.504 176.928L52.984 178.192C54.536 177.824 56.584 177.312 58.488 176.816L58.344 175.632C56.216 176.128 53.976 176.64 52.504 176.928ZM52.76 174.192C54.088 174.512 55.784 175.136 56.648 175.632L57.288 174.576C56.392 174.096 54.68 173.536 53.368 173.248L52.76 174.192ZM58.648 166.912C58.28 167.872 57.608 169.152 57.08 169.968L58.376 170.48C58.92 169.696 59.56 168.544 60.104 167.456L58.648 166.912ZM50.552 167.584C51.208 168.512 51.864 169.76 52.104 170.576L53.464 169.92C53.208 169.104 52.504 167.904 51.832 167.008L50.552 167.584ZM58.056 171.04V179.584C58.056 179.808 57.976 179.872 57.72 179.888C57.48 179.904 56.632 179.904 55.8 179.856C55.992 180.256 56.2 180.896 56.264 181.296C57.48 181.296 58.296 181.28 58.84 181.04C59.368 180.8 59.528 180.384 59.528 179.616V171.04H58.056ZM54.536 166.48V171.936H56.056V166.48H54.536ZM46.392 167.792C47.336 168.352 48.648 169.168 49.288 169.68L50.216 168.464C49.528 168 48.2 167.232 47.272 166.72L46.392 167.792ZM45.496 172.208C46.456 172.72 47.816 173.488 48.472 173.936L49.304 172.688C48.616 172.24 47.24 171.536 46.312 171.088L45.496 172.208ZM46.04 180.128L47.32 181.152C48.264 179.632 49.336 177.712 50.184 176.016L49.08 175.024C48.136 176.848 46.888 178.912 46.04 180.128ZM65.464 171.28H72.424V172.336H65.464V171.28ZM65.464 173.456H72.424V174.512H65.464V173.456ZM65.464 169.136H72.424V170.176H65.464V169.136ZM64.008 167.952V175.696H73.944V167.952H64.008ZM68.248 166.336C68.12 166.88 67.864 167.632 67.64 168.192L69.016 168.48C69.304 168 69.704 167.328 70.056 166.592L68.248 166.336ZM65.128 176.736V179.168C65.128 180.656 65.64 181.072 67.688 181.072C68.104 181.072 70.648 181.072 71.096 181.072C72.76 181.072 73.224 180.56 73.416 178.432C73 178.352 72.344 178.128 72.008 177.888C71.928 179.472 71.8 179.68 70.984 179.68C70.376 179.68 68.248 179.68 67.8 179.68C66.808 179.68 66.648 179.616 66.648 179.152V176.736H65.128ZM67.656 176.192C68.44 176.944 69.336 178 69.704 178.72L70.936 177.984C70.536 177.264 69.624 176.24 68.824 175.536L67.656 176.192ZM73.048 176.896C73.768 177.936 74.52 179.36 74.776 180.256L76.216 179.632C75.928 178.704 75.144 177.344 74.408 176.336L73.048 176.896ZM63.208 176.608C62.84 177.664 62.216 179.024 61.608 179.92L63 180.592C63.576 179.648 64.12 178.208 64.536 177.168L63.208 176.608Z" fill="black"/>
<path d="M63.7163 139.368L61.2163 135.218C60.6913 134.293 60.2163 132.543 60.2163 131.518V125.193C60.2133 122.403 59.4205 119.671 57.9295 117.313C56.4386 114.955 54.3104 113.067 51.7913 111.868C51.1483 110.727 50.2105 109.779 49.0759 109.123C47.9413 108.468 46.6515 108.13 45.3413 108.143C42.6163 108.143 40.1663 109.618 38.8663 111.943C33.9913 114.368 30.6163 119.393 30.6163 125.193V131.518C30.6163 132.543 30.1413 134.293 29.6163 135.193L27.0913 139.368C26.0913 141.043 25.8663 142.893 26.4913 144.593C27.0913 146.268 28.5163 147.568 30.3663 148.193C35.2163 149.843 40.3163 150.643 45.4163 150.643C50.5163 150.643 55.6163 149.843 60.4663 148.218C62.2163 147.643 63.5663 146.318 64.2163 144.593C64.8663 142.868 64.6913 140.968 63.7163 139.368ZM52.4413 153.168C51.9156 154.624 50.9545 155.882 49.6887 156.772C48.4229 157.662 46.9137 158.141 45.3663 158.143C43.3913 158.143 41.4413 157.343 40.0663 155.918C39.2663 155.168 38.6663 154.168 38.3163 153.143C38.6413 153.193 38.9663 153.218 39.3163 153.268C39.8913 153.343 40.4913 153.418 41.0913 153.468C42.5163 153.593 43.9663 153.668 45.4163 153.668C46.8413 153.668 48.2663 153.593 49.6663 153.468C50.1913 153.418 50.7163 153.393 51.2163 153.318L52.4413 153.168Z" fill="white"/>
<path d="M134.075 111.925C134.52 111.68 135 112.055 135 112.567V146.457C135 147.015 134.617 147.487 134.125 147.747C134.108 147.756 134.092 147.764 134.075 147.772L128.2 151.122C124.1 153.472 120.725 151.522 120.725 146.772V122.45C120.725 120.875 121.85 118.925 123.25 118.125L134.075 111.925ZM151.805 118.257C152.013 118.361 152.189 118.52 152.311 118.717C152.434 118.915 152.5 119.143 152.5 119.375V152.257C152.5 152.469 152.446 152.677 152.344 152.862C152.241 153.047 152.094 153.203 151.914 153.315C151.735 153.427 151.531 153.493 151.32 153.504C151.109 153.516 150.898 153.474 150.707 153.382L140.082 148.265C139.871 148.163 139.692 148.003 139.567 147.804C139.442 147.605 139.375 147.375 139.375 147.14V114.117C139.375 113.905 139.429 113.695 139.532 113.509C139.635 113.323 139.784 113.166 139.965 113.054C140.146 112.941 140.352 112.877 140.565 112.866C140.777 112.856 140.989 112.9 141.18 112.995L151.805 118.257ZM170 119.225V143.55C170 145.125 168.875 147.075 167.475 147.875L158.747 152.877C158.557 152.987 158.342 153.044 158.123 153.044C157.903 153.043 157.688 152.985 157.498 152.875C157.309 152.765 157.151 152.607 157.042 152.417C156.932 152.227 156.875 152.012 156.875 151.792V118.825C156.875 118.605 156.933 118.388 157.044 118.198C157.155 118.007 157.314 117.849 157.505 117.74L162.525 114.875C166.625 112.525 170 114.475 170 119.225Z" fill="white"/>
<path d="M114.024 170.352V171.856H127.992V170.352H114.024ZM120.184 166.512V181.344H121.784V166.512H120.184ZM119.848 171.152C118.536 174.064 115.992 177.008 113.352 178.448C113.704 178.752 114.216 179.344 114.488 179.728C117.208 178.048 119.704 174.944 121.176 171.6L119.848 171.152ZM122.088 171.2L120.808 171.648C122.312 174.864 124.824 178 127.464 179.68C127.72 179.264 128.248 178.672 128.616 178.368C126.024 176.944 123.416 174.016 122.088 171.2ZM130.024 170.352V171.856H143.992V170.352H130.024ZM136.184 166.512V181.344H137.784V166.512H136.184ZM135.848 171.152C134.536 174.064 131.992 177.008 129.352 178.448C129.704 178.752 130.216 179.344 130.488 179.728C133.208 178.048 135.704 174.944 137.176 171.6L135.848 171.152ZM138.088 171.2L136.808 171.648C138.312 174.864 140.824 178 143.464 179.68C143.72 179.264 144.248 178.672 144.616 178.368C142.024 176.944 139.416 174.016 138.088 171.2ZM145.768 170.288V171.728H150.664V170.288H145.768ZM147.608 166.704V177.184H149.032V166.704H147.608ZM145.448 177.216L146.056 178.736C147.48 178.096 149.288 177.264 150.968 176.464L150.632 175.12C148.728 175.92 146.744 176.752 145.448 177.216ZM155.032 166.496V177.712H156.456V166.496H155.032ZM150.136 173.024L150.696 174.368L159.16 170.736L158.616 169.44L150.136 173.024ZM151.8 168.016V178.56C151.8 180.512 152.36 181.008 154.36 181.008C154.808 181.008 157.608 181.008 158.072 181.008C159.832 181.008 160.312 180.288 160.52 178.048C160.104 177.968 159.512 177.728 159.176 177.488C159.048 179.248 158.888 179.648 157.976 179.648C157.4 179.648 154.952 179.648 154.44 179.648C153.416 179.648 153.24 179.488 153.24 178.576V168.016H151.8ZM158.232 169.856C158.152 172.08 157.96 175.056 157.672 176.768L158.904 177.12C159.32 175.248 159.56 172.304 159.688 170.048L159.752 169.808L158.616 169.44L158.056 169.856H158.232ZM167 169.84H170.888V170.704H167V169.84ZM165.784 169.008V171.536H172.184V169.008H165.784ZM166.424 174.512H171.464V177.872H166.424V174.512ZM165.24 173.632V178.752H172.712V173.632H165.24ZM168.152 175.808H169.704V176.576H168.152V175.808ZM167.288 175.104V177.28H170.632V175.104H167.288ZM164.312 172.16V173.04H173.704V172.16H164.312ZM168.28 170.992V172.56H169.576V170.992H168.28ZM162.232 167.104V181.344H163.656V168.368H174.328V181.344H175.8V167.104H162.232ZM163.128 179.472V180.736H175.08V179.472H163.128Z" fill="black"/>
<path d="M214.024 170.352V171.856H227.992V170.352H214.024ZM220.184 166.512V181.344H221.784V166.512H220.184ZM219.848 171.152C218.536 174.064 215.992 177.008 213.352 178.448C213.704 178.752 214.216 179.344 214.488 179.728C217.208 178.048 219.704 174.944 221.176 171.6L219.848 171.152ZM222.088 171.2L220.808 171.648C222.312 174.864 224.824 178 227.464 179.68C227.72 179.264 228.248 178.672 228.616 178.368C226.024 176.944 223.416 174.016 222.088 171.2ZM230.024 170.352V171.856H243.992V170.352H230.024ZM236.184 166.512V181.344H237.784V166.512H236.184ZM235.848 171.152C234.536 174.064 231.992 177.008 229.352 178.448C229.704 178.752 230.216 179.344 230.488 179.728C233.208 178.048 235.704 174.944 237.176 171.6L235.848 171.152ZM238.088 171.2L236.808 171.648C238.312 174.864 240.824 178 243.464 179.68C243.72 179.264 244.248 178.672 244.616 178.368C242.024 176.944 239.416 174.016 238.088 171.2ZM246.024 176.912V178.016H253.4V176.912H246.024ZM245.624 169.232V170.368H253.624V169.232H245.624ZM248.968 167.92V179.568H250.344V167.92H248.968ZM245.576 179.504L245.768 180.8C247.832 180.592 250.728 180.288 253.448 179.968L253.432 178.8C250.568 179.088 247.544 179.344 245.576 179.504ZM247.304 174.112H252.072V175.088H247.304V174.112ZM247.304 172.208H252.072V173.168H247.304V172.208ZM246.072 171.216V176.08H253.336V171.216H246.072ZM252.68 166.624C250.968 167.008 248.12 167.296 245.736 167.408C245.88 167.712 246.024 168.192 246.088 168.512C248.488 168.448 251.432 168.192 253.384 167.776L252.68 166.624ZM253.544 170.192V171.584H259.224V170.192H253.544ZM258.616 170.192V170.528C258.472 176.88 258.312 179.168 257.928 179.664C257.784 179.872 257.624 179.92 257.368 179.92C257.064 179.92 256.392 179.904 255.656 179.84C255.896 180.256 256.056 180.88 256.088 181.296C256.84 181.328 257.592 181.328 258.072 181.264C258.568 181.184 258.92 181.04 259.224 180.56C259.752 179.872 259.896 177.584 260.072 170.896C260.072 170.72 260.072 170.192 260.072 170.192H258.616ZM255.304 166.736C255.288 172.928 255.416 177.744 251.88 180.336C252.232 180.592 252.744 181.104 252.968 181.456C256.728 178.576 256.744 173.296 256.76 166.736H255.304ZM269.416 166.496C268.904 168.896 267.976 171.2 266.664 172.624C266.984 172.816 267.576 173.248 267.816 173.488C269.144 171.888 270.2 169.408 270.792 166.768L269.416 166.496ZM274.872 169.104V169.44C274.568 176.368 274.232 178.896 273.736 179.472C273.544 179.696 273.4 179.76 273.144 179.76C272.84 179.76 272.232 179.744 271.576 179.68C271.816 180.096 271.96 180.736 271.992 181.168C272.696 181.216 273.384 181.216 273.816 181.152C274.328 181.072 274.648 180.912 275 180.432C275.624 179.632 275.944 177.072 276.28 169.824C276.296 169.632 276.312 169.104 276.312 169.104H274.872ZM269.56 169.104L268.888 170.512H275.496V169.104H269.56ZM270.968 169.552C270.328 172.304 268.856 175.36 266.984 176.832C267.384 177.056 267.864 177.408 268.168 177.696C269.944 176.096 271.416 172.912 272.088 170.112L270.968 169.552ZM273.224 169.68C272.472 173.872 270.744 178.144 267.96 180.144C268.376 180.352 268.92 180.736 269.208 181.04C271.88 178.864 273.624 174.48 274.424 170.24L273.224 169.68ZM261.496 175.312L261.88 176.768C263.528 176.272 265.704 175.6 267.72 174.96L267.528 173.632C265.336 174.272 263.032 174.944 261.496 175.312ZM264.44 166.512V181.344H265.832V166.512H264.44ZM262.392 167.424C262.232 169.36 261.928 171.376 261.368 172.704C261.672 172.848 262.248 173.2 262.472 173.376C263.064 171.952 263.464 169.76 263.688 167.632L262.392 167.424ZM262.648 169.696L262.376 171.152H267.352V169.696H262.648Z" fill="black"/>
<path d="M262.7 139.3C261.225 130.475 252.75 123.3 243.8 123.3C234.075 123.3 225.525 131.175 224.7 140.875C224.375 144.625 225.575 148.175 228.05 150.85C230.5 153.525 233.95 155 237.7 155H249.4C253.625 155 257.325 153.35 259.85 150.375C262.375 147.4 263.375 143.45 262.7 139.3ZM240.7 119.65C242.643 119.65 244.506 118.878 245.88 117.505C247.253 116.131 248.025 114.268 248.025 112.325C248.025 110.382 247.253 108.519 245.88 107.145C244.506 105.772 242.643 105 240.7 105C238.757 105 236.894 105.772 235.52 107.145C234.147 108.519 233.375 110.382 233.375 112.325C233.375 114.268 234.147 116.131 235.52 117.505C236.894 118.878 238.757 119.65 240.7 119.65ZM257.35 122.57C258.968 122.57 260.519 121.927 261.663 120.783C262.807 119.639 263.45 118.088 263.45 116.47C263.45 114.852 262.807 113.301 261.663 112.157C260.519 111.013 258.968 110.37 257.35 110.37C255.732 110.37 254.181 111.013 253.037 112.157C251.893 113.301 251.25 114.852 251.25 116.47C251.25 118.088 251.893 119.639 253.037 120.783C254.181 121.927 255.732 122.57 257.35 122.57ZM266.375 132.328C267.015 132.328 267.649 132.201 268.241 131.956C268.832 131.711 269.369 131.352 269.822 130.9C270.275 130.447 270.634 129.91 270.879 129.318C271.124 128.727 271.25 128.093 271.25 127.453C271.25 126.812 271.124 126.178 270.879 125.587C270.634 124.995 270.275 124.458 269.822 124.005C269.369 123.553 268.832 123.194 268.241 122.949C267.649 122.704 267.015 122.578 266.375 122.578C265.082 122.578 263.842 123.091 262.928 124.005C262.014 124.92 261.5 126.16 261.5 127.453C261.5 128.745 262.014 129.985 262.928 130.9C263.842 131.814 265.082 132.328 266.375 132.328ZM224.85 127.455C225.651 127.455 226.444 127.297 227.184 126.991C227.924 126.684 228.597 126.235 229.163 125.668C229.73 125.102 230.179 124.429 230.486 123.689C230.792 122.949 230.95 122.156 230.95 121.355C230.95 120.554 230.792 119.761 230.486 119.021C230.179 118.281 229.73 117.608 229.163 117.042C228.597 116.475 227.924 116.026 227.184 115.719C226.444 115.413 225.651 115.255 224.85 115.255C223.232 115.255 221.681 115.898 220.537 117.042C219.393 118.186 218.75 119.737 218.75 121.355C218.75 122.973 219.393 124.524 220.537 125.668C221.681 126.812 223.232 127.455 224.85 127.455Z" fill="white"/>
<path d="M370 129.875C371.025 129.875 371.875 129.025 371.875 128V125.5C371.875 114.475 368.525 111.125 357.5 111.125H341.875V116.75C341.875 117.775 341.025 118.625 340 118.625C338.975 118.625 338.125 117.775 338.125 116.75V111.125H332.5C321.475 111.125 318.125 114.475 318.125 125.5V126.75C318.125 127.775 318.975 128.625 320 128.625C322.4 128.625 324.375 130.6 324.375 133C324.375 135.4 322.4 137.375 320 137.375C318.975 137.375 318.125 138.225 318.125 139.25V140.5C318.125 151.525 321.475 154.875 332.5 154.875H338.125V149.25C338.125 148.225 338.975 147.375 340 147.375C341.025 147.375 341.875 148.225 341.875 149.25V154.875H357.5C368.525 154.875 371.875 151.525 371.875 140.5C371.875 139.475 371.025 138.625 370 138.625C367.6 138.625 365.625 136.65 365.625 134.25C365.625 131.85 367.6 129.875 370 129.875ZM341.875 138.425C341.875 139.45 341.025 140.3 340 140.3C338.975 140.3 338.125 139.45 338.125 138.425V127.575C338.125 126.55 338.975 125.7 340 125.7C341.025 125.7 341.875 126.55 341.875 127.575V138.425Z" fill="white"/>
<path d="M323.192 178.448C324.488 179.2 326.136 180.304 326.904 181.024L328.104 180.16C327.224 179.408 325.576 178.368 324.296 177.696L323.192 178.448ZM315.736 174.048V175.232H326.28V174.048H315.736ZM313.816 176.144V177.36H328.216V176.144H313.816ZM314.008 167.088V168.304H327.896V167.088H314.008ZM317.16 177.648C316.36 178.592 315 179.488 313.688 180.064C314.024 180.288 314.584 180.8 314.824 181.072C316.12 180.384 317.608 179.28 318.552 178.128L317.16 177.648ZM316.36 170.48H325.592V172.048H316.36V170.48ZM314.952 169.376V173.184H327.096V169.376H314.952ZM318.44 167.552V172.688H319.832V167.552H318.44ZM321.992 167.552V172.688H323.416V167.552H321.992ZM320.232 176.464V181.376H321.736V176.464H320.232ZM333.992 167.264V168.4H344.28V167.264H333.992ZM335.656 170.16H342.408V171.504H335.656V170.16ZM334.344 169.232V172.432H343.784V169.232H334.344ZM337.048 167.664V171.888H338.264V167.664H337.048ZM339.72 167.664V171.888H340.968V167.664H339.72ZM336.04 175.648H342.136V176.432H336.04V175.648ZM336.04 177.296H342.136V178.096H336.04V177.296ZM336.04 174.016H342.136V174.784H336.04V174.016ZM334.632 173.104V178.992H343.608V173.104H334.632ZM339.752 179.84C341.096 180.304 342.504 180.928 343.304 181.392L344.6 180.528C343.672 180.064 342.104 179.44 340.728 178.992L339.752 179.84ZM337.224 178.96C336.376 179.504 334.84 180.048 333.448 180.352C333.736 180.608 334.088 181.072 334.264 181.376C335.688 181.04 337.288 180.448 338.296 179.728L337.224 178.96ZM332.552 166.56C331.816 168.976 330.584 171.392 329.24 172.944C329.48 173.344 329.864 174.176 329.992 174.544C331.592 172.656 333.048 169.744 333.96 166.96L332.552 166.56ZM331.272 170.688V181.344H332.712V169.328L332.68 169.296L331.272 170.688ZM349.288 175.008H356.872V175.92H349.288V175.008ZM349.288 176.832H356.872V177.776H349.288V176.832ZM349.288 173.184H356.872V174.096H349.288V173.184ZM347.816 172.24V178.72H358.392V172.24H347.816ZM354.408 179.488C356.072 180.064 357.768 180.8 358.744 181.312L360.104 180.48C358.984 179.952 357.112 179.232 355.416 178.672L354.408 179.488ZM350.472 178.72C349.352 179.344 347.432 179.904 345.768 180.24C346.104 180.496 346.632 181.072 346.888 181.36C348.504 180.912 350.552 180.144 351.848 179.344L350.472 178.72ZM352.312 167.536V168.672H358.856V167.536H352.312ZM352.52 166.432C352.152 167.568 351.48 168.672 350.648 169.408C350.968 169.584 351.528 169.952 351.784 170.176C352.632 169.36 353.416 168.064 353.848 166.736L352.52 166.432ZM354.296 168.336V168.864C354.296 169.616 353.864 170.576 349.8 171.008C350.072 171.296 350.456 171.824 350.6 172.16C355.112 171.552 355.688 170.112 355.688 168.928V168.336H354.296ZM355.528 169.152L354.456 169.376C355.384 170.896 357.176 171.792 359.56 172.112C359.736 171.728 360.104 171.184 360.408 170.896C358.152 170.736 356.344 170.144 355.528 169.152ZM346.056 167.376V168.528H350.024V167.376H346.056ZM345.704 169.872V171.056H350.424V169.872H345.704ZM358.344 167.536V167.728C358.072 168.416 357.624 169.248 357.256 169.792L358.424 170.224C358.904 169.616 359.432 168.656 359.832 167.792L358.808 167.472L358.584 167.536H358.344ZM362.328 171.36V172.528H366.92V171.36H362.328ZM362.328 173.488V174.656H366.952V173.488H362.328ZM361.688 169.184V170.416H367.512V169.184H361.688ZM362.936 175.664V176.896H365.736V179.184H362.936V180.416H366.952V175.664H362.936ZM362.328 175.664V181.136H363.512V175.664H362.328ZM363.352 167.008C363.736 167.68 364.232 168.624 364.424 169.216L365.56 168.528C365.32 167.952 364.856 167.088 364.424 166.432L363.352 167.008ZM367.512 173.344V174.768H372.808V173.344H367.512ZM373.304 167.376C373.304 174.288 373.144 180.496 374.824 181.104C375.672 181.456 376.328 180.96 376.536 178.656C376.312 178.432 375.928 177.872 375.704 177.488C375.64 178.592 375.544 179.616 375.448 179.584C374.68 179.376 374.696 173.344 374.808 167.376H373.304ZM369.512 168.304V181.344H370.936V168.304H369.512ZM367.704 167.376V168.816H373.992V167.376H367.704Z" fill="black"/>
<path d="M457.5 111.75H432.5C425 111.75 420 115.5 420 124.25V141.75C420 150.5 425 154.25 432.5 154.25H457.5C465 154.25 470 150.5 470 141.75V124.25C470 115.5 465 111.75 457.5 111.75ZM458.675 126.975L450.85 133.225C449.2 134.55 447.1 135.2 445 135.2C442.9 135.2 440.775 134.55 439.15 133.225L431.325 126.975C430.943 126.657 430.698 126.204 430.642 125.71C430.586 125.216 430.723 124.72 431.025 124.325C431.675 123.525 432.85 123.375 433.65 124.025L441.475 130.275C443.375 131.8 446.6 131.8 448.5 130.275L456.325 124.025C457.125 123.375 458.325 123.5 458.95 124.325C459.6 125.125 459.475 126.325 458.675 126.975Z" fill="white"/>
<path d="M415.736 168.152V169.512H421.096V168.152H415.736ZM417.304 171.528V172.792H420.072V171.528H417.304ZM417.304 174.808V176.072H420.072V174.808H417.304ZM416.44 168.856V179.016H417.672V168.856H416.44ZM419.24 168.856V182.36H420.52V168.856H419.24ZM415.528 178.728L415.816 180.072C417.096 179.848 418.68 179.56 420.248 179.272L420.152 178.024C418.44 178.312 416.728 178.568 415.528 178.728ZM423.96 172.696C424.248 173.56 424.568 174.728 424.728 175.416L425.656 175.112C425.528 174.456 425.176 173.304 424.856 172.472L423.96 172.696ZM421.24 172.152C421.24 171.848 421.944 171.416 421.944 171.416V171.384C422.664 170.616 423.48 169.336 424.104 168.072L422.984 167.592C422.568 168.776 421.768 169.928 421.56 170.232C421.32 170.552 421.112 170.728 420.888 170.792C421.016 171.16 421.192 171.848 421.24 172.152ZM421.24 172.152C421.448 172.04 421.848 171.96 423.704 171.816C423.736 171.576 423.848 171.144 423.928 170.856L421.72 170.952L421.24 171.304V172.152ZM421.144 175.192C421.144 174.888 421.848 174.488 421.848 174.488V174.44C422.984 173.352 424.184 171.72 425.208 170.024L424.184 169.48C423.352 171.064 422.12 172.68 421.736 173.08C421.384 173.496 421.08 173.784 420.808 173.848C420.936 174.216 421.08 174.904 421.144 175.192ZM421.144 175.192C421.4 175.032 421.864 174.936 425.096 174.552C425.064 174.312 425 173.896 425 173.592L421.624 173.912L421.128 174.28L421.144 175.192ZM428.68 172.568C429.032 173.448 429.448 174.616 429.64 175.32L430.568 174.952C430.376 174.28 429.928 173.128 429.56 172.28L428.68 172.568ZM425.816 172.072C425.816 171.768 426.52 171.352 426.52 171.352V171.32C427.192 170.584 427.96 169.4 428.552 168.2L427.544 167.688C427.112 168.824 426.344 169.976 426.12 170.264C425.912 170.568 425.688 170.744 425.48 170.792C425.608 171.128 425.752 171.784 425.816 172.072ZM425.816 172.072C426.008 171.96 426.392 171.88 428.216 171.736C428.248 171.496 428.344 171.064 428.44 170.776L426.296 170.872L425.816 171.208V172.072ZM425.976 175.144C425.976 174.84 426.76 174.424 426.76 174.424V174.408C427.768 173.32 428.824 171.672 429.688 170.008L428.68 169.464C427.992 171.064 426.856 172.68 426.52 173.08C426.2 173.512 425.912 173.8 425.64 173.848C425.784 174.2 425.928 174.856 425.976 175.144ZM425.976 175.144C426.248 174.984 426.712 174.872 429.944 174.392C429.88 174.168 429.848 173.736 429.832 173.448L426.456 173.864L425.96 174.232L425.976 175.144ZM423.896 175.48V177.896C423.896 179.144 423.608 180.472 421.48 181.416C421.72 181.624 422.152 182.168 422.296 182.472C424.68 181.352 425.176 179.512 425.176 177.912V175.48H423.896ZM421.896 177.896V179.192H424.696V177.896H421.896ZM426.072 175.464V182.376H427.384V175.464H426.072ZM421.56 175.48V179.192H422.792V175.48H421.56ZM428.504 175.592V179.752H429.736V175.592H428.504ZM426.808 177.864V179.176H429.192V177.864H426.808ZM439.544 180.44V181.768H444.808V180.44H439.544ZM440.168 169.144V170.424H444.6V169.144H440.168ZM438.664 176.456V182.312H440.072V177.784H444.024V182.28H445.496V176.456H438.664ZM444.28 169.144V169.416C443.16 172.36 440.216 174.872 437.32 175.976C437.64 176.248 438.024 176.792 438.216 177.16C441.352 175.8 444.424 173.208 445.8 169.576L444.808 169.08L444.536 169.144H444.28ZM440.616 167.448C439.896 169.272 438.616 171 437.16 172.072C437.496 172.312 438.04 172.84 438.28 173.128C439.768 171.88 441.192 169.928 442.056 167.848L440.616 167.448ZM440.248 170.136L439.176 170.824C440.248 173.016 442.552 175.688 445.688 176.968C445.912 176.6 446.36 175.992 446.664 175.704C443.544 174.616 441.256 172.168 440.248 170.136ZM435.288 173.96C435.672 175.08 436.056 176.536 436.184 177.4L437.352 177.032C437.224 176.184 436.792 174.76 436.392 173.672L435.288 173.96ZM434.056 178.088C434.248 179.192 434.424 180.632 434.44 181.576L435.624 181.352C435.576 180.392 435.384 178.984 435.176 177.88L434.056 178.088ZM432.232 177.912C432.104 179.208 431.88 180.648 431.512 181.608C431.832 181.688 432.44 181.896 432.712 182.04C433.048 181.048 433.336 179.528 433.496 178.12L432.232 177.912ZM431.944 173.656C431.944 173.368 432.808 172.92 432.808 172.92V172.888C433.88 171.624 435 169.784 435.832 168.04L434.488 167.464C433.832 169.192 432.728 171 432.392 171.448C432.056 171.944 431.768 172.248 431.48 172.328C431.64 172.696 431.864 173.352 431.944 173.656ZM431.944 173.656C432.216 173.512 432.696 173.416 435.272 173.144C435.272 172.856 435.336 172.36 435.4 172.008L432.536 172.232L431.912 172.632L431.944 173.656ZM432.056 177.304C432.056 177.032 432.952 176.584 432.952 176.584V176.552C434.488 175 436.072 172.808 437.304 170.648L436.008 169.896C435 172.056 433.32 174.312 432.808 174.888C432.312 175.464 431.944 175.848 431.576 175.928C431.736 176.328 431.976 177.016 432.056 177.304ZM432.056 177.304C432.392 177.128 432.92 176.984 436.504 176.424C436.504 176.152 436.52 175.64 436.568 175.272L432.632 175.816L431.992 176.248L432.056 177.304ZM435.704 177.8C436.04 178.76 436.408 180.024 436.552 180.856L437.656 180.472C437.496 179.656 437.128 178.424 436.76 177.48L435.704 177.8ZM458.264 168.712C459.16 169.528 460.216 170.664 460.664 171.432L461.896 170.568C461.4 169.816 460.312 168.712 459.4 167.928L458.264 168.712ZM447.848 172.152V173.592H462.168V172.152H447.848ZM447.576 176.776L447.976 178.296C450.024 177.864 452.824 177.256 455.432 176.664L455.32 175.304C452.52 175.864 449.48 176.456 447.576 176.776ZM451.096 169.272V180.488C451.096 180.76 451 180.84 450.728 180.84C450.44 180.856 449.496 180.872 448.52 180.824C448.744 181.256 449 181.944 449.064 182.36C450.392 182.36 451.288 182.312 451.848 182.072C452.424 181.832 452.616 181.4 452.616 180.504V169.272H451.096ZM454.248 167.656C452.664 168.216 450.104 168.744 447.864 169.064C448.04 169.416 448.232 169.976 448.312 170.328C450.616 170.04 453.336 169.576 455.288 168.936L454.248 167.656ZM455.832 167.624C455.896 175.064 457.24 182.408 460.456 182.408C461.768 182.408 462.28 181.656 462.536 178.936C462.12 178.776 461.592 178.424 461.272 178.072C461.176 180.072 460.984 180.872 460.6 180.872C458.856 180.872 457.352 174.584 457.416 167.624H455.832ZM460.184 174.232C458.744 176.92 456.136 179.256 453.32 180.584C453.704 180.92 454.136 181.416 454.36 181.784C457.288 180.248 459.912 177.752 461.512 174.808L460.184 174.232ZM468.92 170.776V171.896H471.96V170.776H468.92ZM473.88 170.776V171.896H476.952V170.776H473.88ZM476.488 168.392V180.488C476.488 180.792 476.376 180.888 476.072 180.888C475.752 180.904 474.632 180.92 473.56 180.872C473.768 181.256 474.008 181.928 474.072 182.328C475.576 182.328 476.552 182.312 477.144 182.056C477.736 181.832 477.928 181.4 477.928 180.504V168.392H476.488ZM468.04 168.392V182.312H469.448V168.392H468.04ZM469 168.392V169.576H471.288V173.192H469V174.36H472.456V168.392H469ZM477.208 168.392H473.304V174.36H477.208V173.192H474.52V169.576H477.208V168.392ZM466.552 167.56C465.816 169.976 464.584 172.392 463.24 173.944C463.48 174.344 463.864 175.176 463.992 175.544C465.592 173.656 467.048 170.744 467.96 167.96L466.552 167.56ZM465.272 171.688V182.344H466.712V170.328L466.68 170.296L465.272 171.688Z" fill="black"/>
</svg>
