<svg width="297" height="238" viewBox="0 0 297 238" fill="none" xmlns="http://www.w3.org/2000/svg">
<path d="M150.546 104.715L175.573 45.3359L272.541 47.8175C280.723 56.4296 289.965 103.115 293.564 125.381L292.003 186.361C291.646 215.961 265.804 226.37 252.928 227.875L185.95 226.161L113.076 220.294C93.9953 215.405 85.961 211.431 84.329 210.056C59.7315 201.824 32.7753 165.889 22.3719 148.951C3.93545 118.869 3.716 70.1141 5.91084 49.4969C13.4352 21.2801 29.2172 5.24529 36.1677 0.754971C63.9846 8.26906 76.4337 29.9613 79.1811 39.8682C95.2278 53.8833 104.087 115.53 106.511 144.602C116.981 188.884 138.678 197.108 148.218 195.685C139.469 146.645 146.124 114.605 150.546 104.715Z" fill="#FF8241" stroke="#FF8241"/>
<path d="M186 169C186 169 184.972 205.5 188.736 222C192.5 238.5 207.5 239 211 223.5C214.5 208 214 178.5 214 178.5C214 139 211.799 118.547 210.119 112.734C202.5 96 189.856 105.427 187.19 112.148C184.694 116.157 186 152 186 169Z" fill="#462A36" stroke="#452B38"/>
<path d="M260.163 169.976C260.163 169.976 261.191 206.476 257.427 222.976C253.663 239.476 238.663 239.976 235.163 224.476C231.663 208.976 232.163 179.476 232.163 179.476C232.163 139.976 234.364 119.524 236.044 113.711C243.663 96.9762 256.307 106.404 258.972 113.124C261.469 117.133 260.163 152.976 260.163 169.976Z" fill="#462A36" stroke="#452B38"/>
<path d="M33.1686 0.67825C12.6218 6.1544 6.11934 34.8308 5.43648 48.4844C11.5888 58.245 27.2587 55.7117 34.3247 53.225C56.1355 66.5874 63.8842 53.648 65.0321 45.5081C71.7583 48.4811 76.6264 41.9702 78.2197 38.3431C74.4556 13.4387 46.6173 2.85635 33.1686 0.67825Z" fill="#F4E4D4" stroke="#F4E4D4"/>
</svg>
