<svg width="183" height="173" viewBox="0 0 183 173" fill="none" xmlns="http://www.w3.org/2000/svg">
<path d="M155.207 46.6448L137.494 28.6917C148.761 17.6873 160.109 15.0247 164.375 15.0689C167.019 27.1927 159.364 41.1711 155.207 46.6448Z" fill="#F4E5D2" stroke="#F4E5D2"/>
<path d="M162.575 8.00105C146.934 8.40881 132.762 20.0054 127.631 25.7527L134.817 32.1251C144.335 18.1897 155.252 17.4754 159.521 18.8602C162.088 31.4065 155.498 45.5239 151.881 51.0143L160.168 55.44C167.487 39.4571 178.216 7.59329 162.575 8.00105Z" fill="#0F0F0F" stroke="#2D2C2C"/>
<path d="M58.0187 26.1925L38.8075 39.7362C31.209 23.7305 34.6747 12.6586 37.3573 9.12331C45.4484 7.53137 54.5028 19.8395 58.0187 26.1925Z" fill="#F4E5D2" stroke="#F4E5D2"/>
<path d="M31.9354 45.4905L38.5463 40.1711C31.261 25.703 33.6148 14.4912 35.7023 10.6938C45.4515 6.11646 55.1061 18.8294 58.7147 25.758L64.7747 20.8819C58.8779 11.8615 44.2196 -3.87416 32.7607 5.34612C21.3018 14.5664 27.4359 35.9508 31.9354 45.4905Z" fill="#0F0F0F" stroke="#2D2C2C"/>
<path d="M32.964 46.3639C23.8509 52.3096 9.56309 86.5628 3.55831 102.946C26.5235 84.4865 48.589 87.0415 56.7511 90.6264C77.3825 94.4771 80.4503 130.045 79.4053 147.348C84.4627 142.398 94.8287 145.961 99.3796 148.361L100.368 128.886C103.026 100.184 125.115 91.7596 135.827 91.1351C151.21 87.9107 169.576 103.528 176.835 111.74C178.695 82.9974 158.686 51.7431 148.45 39.7088C133.806 22.4444 101.677 14.3055 75.9312 18.5059C55.3344 21.8663 38.7044 38.4781 32.964 46.3639Z" fill="#FF8241" stroke="#FF8241"/>
<path d="M84.8536 168.235C54.8839 151.094 18.7648 118.989 4.4514 105.079C17.2064 90.5065 41.385 87.595 51.88 87.9607C75.4497 89.1569 79.416 127.407 78.453 146.383L89.5834 153.957L100.425 147.498C97.1113 104.274 117.042 96.2742 137.27 92.2943C153.452 89.1105 169.653 105.286 175.731 113.771C123.559 163.191 93.4078 170.672 84.8536 168.235Z" fill="#F4E5D2" stroke="#F4E4D4"/>
<path d="M100.552 145.001L78.5798 143.886C79.8695 150.957 81.8288 154.009 89.3969 156.45C95.1718 153.786 98.1202 151.922 100.552 145.001Z" fill="black" stroke="black"/>
<circle cx="52.3391" cy="108.51" r="9" transform="rotate(2.90532 52.3391 108.51)" fill="#0F0F0F"/>
<circle cx="132.236" cy="112.565" r="9" transform="rotate(2.90532 132.236 112.565)" fill="#0C0B0B"/>
</svg>
