<svg width="152" height="162" viewBox="0 0 152 162" fill="none" xmlns="http://www.w3.org/2000/svg">
<path d="M72.6741 27.2856V25.2473C72.021 23.9636 71.5321 22.7896 71.1975 21.7142C68.8341 22.3031 65.1665 24.7309 69.404 29.7315C70.3774 28.4045 71.7154 27.6124 72.6741 27.2856Z" fill="#614039"/>
<path d="M80.6914 25.2473C80.8001 20.4641 75.3918 23.2543 72.6741 25.2473V27.2856C75.2559 30.6827 78.5172 31.9057 78.789 31.0904C79.0607 30.2751 80.5555 31.2263 80.6914 25.2473Z" fill="black"/>
<path d="M88.9805 23.8884C86.8063 19.0232 81.2893 9.73877 76.6148 11.5227C71.7401 13.3831 69.5135 16.3008 71.1975 21.7142C71.5321 22.7896 72.021 23.9636 72.6741 25.2473C75.3918 23.2543 80.8001 20.4641 80.6914 25.2473C80.5555 31.2263 79.0607 30.2751 78.789 31.0904C78.5172 31.9057 75.2559 30.6827 72.6741 27.2856C71.7154 27.6124 70.3774 28.4045 69.404 29.7315C68.3538 31.1633 67.7281 33.2178 68.4616 35.9823C69.3287 39.2505 71.5816 41.0128 74.7009 40.771C77.9367 40.5201 82.1048 38.1128 86.6251 32.9928C81.2621 27.8835 85.9608 24.7943 88.9805 23.8884Z" fill="#EDE0D6"/>
<path d="M109.363 29.7315C112.19 20.9261 105.468 11.6586 101.754 8.12556L98.7643 6.58258L95.7748 5.0396L93.3288 3.77717C84.1338 0.65178 60.6889 -2.41925 40.4689 10.2997C38.5949 11.4785 36.8315 12.6267 35.1693 13.7527C39.835 12.1367 49.2755 10.9648 57.0471 15.6938C57.183 14.7111 61.2868 12.5011 76.6148 11.5227C81.2893 9.73877 86.8063 19.0232 88.9805 23.8884C85.9608 24.7943 81.2621 27.8835 86.6251 32.9928C82.1048 38.1128 77.9367 40.5201 74.7009 40.771C72.3579 41.2584 66.2289 42.6951 60.4571 44.5432C61.7319 49.6625 61.2095 54.2412 58.6777 59.3399C61.2596 56.1742 69.7117 50.495 82.8656 53.104L86.6251 52.2887L90.3846 51.4734L94.1442 50.6581C103.058 46.7445 107.189 39.2436 108.14 35.9823L109.363 29.7315Z" fill="#8E5E49"/>
<path d="M88.9805 54.327C90.3937 54.1096 90.5054 52.334 90.3846 51.4734L86.6251 52.2887C86.8214 53.0587 87.5672 54.5444 88.9805 54.327Z" fill="#614039"/>
<path d="M97.949 4.45662C96.8619 3.99023 96.0466 4.65095 95.7748 5.0396L98.7643 6.58258C98.9455 6.06825 99.0361 4.92301 97.949 4.45662Z" fill="#614039"/>
<path d="M89.6599 57.996C94.2257 56.6914 94.5518 52.5605 94.1442 50.6581L90.3846 51.4734C90.5054 52.334 90.3937 54.1096 88.9805 54.327C87.5672 54.5444 86.8214 53.0587 86.6251 52.2887L82.8656 53.104C83.2279 55.2782 85.0941 59.3005 89.6599 57.996Z" fill="#8E5E49"/>
<path d="M99.3079 1.33121C95.8292 0.135406 93.8724 2.4636 93.3288 3.77717L95.7748 5.0396C96.0466 4.65095 96.8619 3.99023 97.949 4.45662C99.0361 4.92301 98.9455 6.06825 98.7643 6.58258L101.754 8.12556C102.388 6.35902 102.787 2.52701 99.3079 1.33121Z" fill="#8E5E49"/>
<path d="M2.1489 61.9367C-2.84271 88.0692 8.12791 125.803 41.0125 143.469L43.5943 144.912C39.1054 144.839 35.1177 145.64 33.131 148.089C31.9987 150.58 31.5819 155.563 38.9742 155.563C40.9219 155.064 46.4208 154.856 52.8346 158.009C59.3698 161.221 75.0242 162.266 74.7009 152.165C82.6315 152.981 103.52 150.779 123.632 135.451C148.771 116.291 156.788 81.3685 146.868 51.7452C146.325 49.8428 144.259 46.4999 140.346 48.348C136.432 50.1961 135.997 53.0134 136.269 54.1911C138.443 61.6196 141.759 80.0911 137.628 94.5495C133.497 109.008 120.144 123.04 113.984 128.249C111.628 129.563 106.238 130.831 103.52 125.396C100.123 118.601 90.4752 107.73 84.9039 105.964C81.7332 102.793 73.5166 96.2616 66.0156 95.5007C62.9499 95.1897 60.5816 95.2854 58.6777 95.7499C54.7588 96.7061 52.8084 99.2247 50.7963 102.974C47.218 101.978 39.0829 100.583 35.1693 102.974C30.2774 105.964 32.5875 112.622 35.1693 112.622C37.7512 112.622 41.4201 111.535 47.1274 114.797C50.1744 116.538 59.1864 120.099 66.0156 120.415C66.1515 125.427 62.863 135.451 48.6221 135.451C37.9324 131.239 15.5473 114.797 11.5251 82.7273C7.50283 50.6581 28.1485 30.1392 38.9742 23.8884C44.6271 21.1707 53.3782 25.0208 57.0471 27.2856C63.7871 28.6988 64.1132 24.1602 63.4338 21.7142C61.573 19.074 59.3856 17.1167 57.0471 15.6938C49.2755 10.9648 39.835 12.1367 35.1693 13.7527C15.0581 25.2473 6.76904 37.7488 2.1489 61.9367Z" fill="#8E5E49"/>
<path d="M35.1693 102.974C39.0829 100.583 47.218 101.978 50.7963 102.974C34.0551 86.668 40.1972 66.1944 45.3608 57.996C48.4419 53.104 49.1657 49.888 48.6221 46.8532C44.926 40.9829 46.0856 37.16 47.1274 35.9823C51.5845 32.2862 55.5976 34.4423 57.0471 35.9823C58.6485 39.0808 59.7951 41.8849 60.4571 44.5432C66.2289 42.6951 72.3579 41.2584 74.7009 40.771C71.5816 41.0128 69.3287 39.2505 68.4616 35.9823C67.7281 33.2178 68.3538 31.1633 69.404 29.7315C65.1665 24.7309 68.8341 22.3031 71.1975 21.7142C69.5135 16.3008 71.7401 13.3831 76.6148 11.5227C61.2868 12.5011 57.183 14.7111 57.0471 15.6938C59.3856 17.1167 61.573 19.074 63.4338 21.7142C64.1132 24.1602 63.7871 28.6988 57.0471 27.2856C53.3782 25.0208 44.6271 21.1707 38.9742 23.8884C28.1485 30.1392 7.50283 50.6581 11.5251 82.7273C15.5473 114.797 37.9324 131.239 48.6221 135.451C62.863 135.451 66.1515 125.427 66.0156 120.415C59.1864 120.099 50.1744 116.538 47.1274 114.797C41.4201 111.535 37.7512 112.622 35.1693 112.622C32.5875 112.622 30.2774 105.964 35.1693 102.974Z" fill="#EDE0D6"/>
<path d="M50.7963 102.974C52.8084 99.2247 54.7588 96.7061 58.6777 95.7499C53.7405 90.3673 45.7413 77.2103 53.2423 67.6439C55.5902 64.6495 57.3928 61.9277 58.6777 59.3399C61.2095 54.2412 61.7319 49.6625 60.4571 44.5432C59.7951 41.8849 58.6485 39.0808 57.0471 35.9823C55.5976 34.4423 51.5845 32.2862 47.1274 35.9823C46.0856 37.16 44.926 40.9829 48.6221 46.8532C49.1657 49.888 48.4419 53.104 45.3608 57.996C40.1972 66.1944 34.0551 86.668 50.7963 102.974Z" fill="#8E5E49"/>
<path d="M93.3288 3.77717C93.8724 2.4636 95.8292 0.135406 99.3079 1.33121C102.787 2.52701 102.388 6.35902 101.754 8.12556M93.3288 3.77717C84.1338 0.65178 60.6889 -2.41925 40.4689 10.2997C38.5949 11.4785 36.8315 12.6267 35.1693 13.7527M93.3288 3.77717L95.7748 5.0396M101.754 8.12556C105.468 11.6586 112.19 20.9261 109.363 29.7315M101.754 8.12556L98.7643 6.58258M109.363 29.7315C109.273 31.6339 109.744 35.9008 112.353 37.7488M109.363 29.7315L108.14 35.9823M108.14 35.9823C107.914 37.2506 107.842 40.3579 109.363 42.6408M108.14 35.9823C107.189 39.2436 103.058 46.7445 94.1442 50.6581M94.1442 50.6581C94.5518 52.5605 94.2257 56.6914 89.6599 57.996C85.0941 59.3005 83.2279 55.2782 82.8656 53.104M94.1442 50.6581L90.3846 51.4734M82.8656 53.104C69.7117 50.495 61.2596 56.1742 58.6777 59.3399M82.8656 53.104L86.6251 52.2887M60.8519 148.089C56.6586 146.708 49.6678 145.01 43.5943 144.912M71.7229 143.469C73.7325 147.011 74.6276 149.875 74.7009 152.165M43.5943 144.912C39.1054 144.839 35.1177 145.64 33.131 148.089C31.9987 150.58 31.5819 155.563 38.9742 155.563C40.9219 155.064 46.4208 154.856 52.8346 158.009C59.3698 161.221 75.0242 162.266 74.7009 152.165M43.5943 144.912L41.0125 143.469C8.12791 125.803 -2.84271 88.0692 2.1489 61.9367C6.76904 37.7488 15.0581 25.2473 35.1693 13.7527M74.7009 152.165C82.6315 152.981 103.52 150.779 123.632 135.451C148.771 116.291 156.788 81.3685 146.868 51.7452C146.325 49.8428 144.259 46.4999 140.346 48.348C136.432 50.1961 135.997 53.0134 136.269 54.1911C138.443 61.6196 141.759 80.0911 137.628 94.5495C133.497 109.008 120.144 123.04 113.984 128.249C111.628 129.563 106.238 130.831 103.52 125.396C100.123 118.601 90.4752 107.73 84.9039 105.964C81.7332 102.793 73.5166 96.2616 66.0156 95.5007C62.9499 95.1897 60.5816 95.2854 58.6777 95.7499M50.7963 102.974C47.218 101.978 39.0829 100.583 35.1693 102.974C30.2774 105.964 32.5875 112.622 35.1693 112.622C37.7512 112.622 41.4201 111.535 47.1274 114.797C50.1744 116.538 59.1864 120.099 66.0156 120.415M50.7963 102.974C52.8084 99.2247 54.7588 96.7061 58.6777 95.7499M50.7963 102.974C34.0551 86.668 40.1972 66.1944 45.3608 57.996C48.4419 53.104 49.1657 49.888 48.6221 46.8532C44.926 40.9829 46.0856 37.16 47.1274 35.9823C51.5845 32.2862 55.5976 34.4423 57.0471 35.9823C58.6485 39.0808 59.7951 41.8849 60.4571 44.5432M73.4894 110.448C76.2763 118.492 71.9778 120.691 66.0156 120.415M58.6777 95.7499C53.7405 90.3673 45.7413 77.2103 53.2423 67.6439C55.5902 64.6495 57.3928 61.9277 58.6777 59.3399M58.6777 59.3399C61.2095 54.2412 61.7319 49.6625 60.4571 44.5432M35.1693 13.7527C39.835 12.1367 49.2755 10.9648 57.0471 15.6938M95.7748 5.0396C96.0466 4.65095 96.8619 3.99023 97.949 4.45662C99.0361 4.92301 98.9455 6.06825 98.7643 6.58258M95.7748 5.0396L98.7643 6.58258M90.3846 51.4734C90.5054 52.334 90.3937 54.1096 88.9805 54.327C87.5672 54.5444 86.8214 53.0587 86.6251 52.2887M90.3846 51.4734L86.6251 52.2887M76.6148 11.5227C81.2893 9.73877 86.8063 19.0232 88.9805 23.8884C85.9608 24.7943 81.2621 27.8835 86.6251 32.9928C82.1048 38.1128 77.9367 40.5201 74.7009 40.771M76.6148 11.5227C61.2868 12.5011 57.183 14.7111 57.0471 15.6938M76.6148 11.5227C71.7401 13.3831 69.5135 16.3008 71.1975 21.7142M72.6741 25.2473C75.3918 23.2543 80.8001 20.4641 80.6914 25.2473C80.5555 31.2263 79.0607 30.2751 78.789 31.0904C78.5172 31.9057 75.2559 30.6827 72.6741 27.2856M72.6741 25.2473V27.2856M72.6741 25.2473C72.021 23.9636 71.5321 22.7896 71.1975 21.7142M72.6741 27.2856C71.7154 27.6124 70.3774 28.4045 69.404 29.7315M66.0156 120.415C66.1515 125.427 62.863 135.451 48.6221 135.451C37.9324 131.239 15.5473 114.797 11.5251 82.7273C7.50283 50.6581 28.1485 30.1392 38.9742 23.8884C44.6271 21.1707 53.3782 25.0208 57.0471 27.2856C63.7871 28.6988 64.1132 24.1602 63.4338 21.7142C61.573 19.074 59.3856 17.1167 57.0471 15.6938M74.7009 40.771C71.5816 41.0128 69.3287 39.2505 68.4616 35.9823C67.7281 33.2178 68.3538 31.1633 69.404 29.7315M74.7009 40.771C72.3579 41.2584 66.2289 42.6951 60.4571 44.5432M71.1975 21.7142C68.8341 22.3031 65.1665 24.7309 69.404 29.7315" stroke="#8E5E49" stroke-width="2" stroke-linecap="round" stroke-linejoin="round"/>
<ellipse cx="89.3882" cy="16.2786" rx="2.98951" ry="3.12539" fill="black"/>
<ellipse cx="83.4091" cy="40.1949" rx="2.98951" ry="3.12539" fill="black"/>
<path d="M67.4583 87.3918C70.8597 81.4079 77.3265 73.6131 80.1347 70.4636C78.686 69.2039 78.2451 67.2092 78.2057 66.3694C71.0565 65.0151 65.3849 68.5346 63.4428 70.4636C62.1699 73.7312 61.191 81.6913 67.4583 87.3918Z" fill="#EEDF77"/>
<path d="M80.1347 70.4636C77.3265 73.6131 70.8597 81.4079 67.4583 87.3918C69.4661 89.5833 75.4893 93.234 83.5204 90.305C85.4231 86.4601 88.2366 77.2506 84.2684 71.1723L80.1347 70.4636Z" fill="#0D99FF"/>
<path d="M84.2684 71.1723C88.2366 77.2506 85.4231 86.4601 83.5204 90.305C92.4962 85.2974 93.0605 77.248 92.2206 73.8493C91.0554 71.8336 87.8771 69.6238 86.4336 68.7708L84.2684 71.1723Z" fill="#FDE387"/>
<path d="M86.4336 68.7708C87.8771 69.6238 91.0554 71.8336 92.2206 73.8493C92.0894 72.2089 90.89 68.078 87.1422 64.6766L84.977 66.3694L86.4336 68.7708Z" fill="#0D99FF"/>
<path d="M84.977 66.3694L87.1422 64.6766C86.0137 63.6924 82.6464 61.5823 78.2057 61.0154L81.1189 64.6766L84.977 66.3694Z" fill="#FDE387"/>
<path d="M81.1189 64.6766L78.2057 61.0154C74.7676 60.8185 67.0016 62.4326 63.4428 70.4636C65.3849 68.5346 71.0565 65.0151 78.2057 66.3694L81.1189 64.6766Z" fill="#0D99FF"/>
<ellipse cx="82.1496" cy="68.0601" rx="4.69074" ry="3.09174" transform="rotate(20.5333 82.1496 68.0601)" fill="white"/>
</svg>
