<svg width="282" height="205" viewBox="0 0 282 205" fill="none" xmlns="http://www.w3.org/2000/svg">
<path d="M163.968 130.763C135.887 141.987 129.989 175.008 130.55 190.116C180.047 206.148 216.108 172.52 227.951 153.702C218.324 141.379 192.05 119.54 163.968 130.763Z" fill="#F0D68A" stroke="#FFF3D8"/>
<path d="M85.3136 49.7368C73.9858 78.6055 56.1528 93.054 48.6523 96.6696C50.6862 98.1116 53.6206 102.096 49.0881 106.5C44.5555 110.903 35.9369 111.023 32.1942 110.532L6.4904 108.388C0.547629 116.531 18.2831 137.414 27.8937 146.837C51.5327 146.84 53.2284 150.53 51.1214 152.374L34.2276 156.406C26.2472 154.133 42.9008 169.373 52.2252 177.277C87.9691 177.794 93.0504 179.845 91.1231 180.806L86.1127 186.282L110.361 185.207L119.958 179.528L134.215 190.059C133.613 152.789 154.26 138.61 164.658 136.179C194.077 124.369 216.857 143.496 224.569 154.536C228.007 149.13 227.566 138.206 226.916 133.42C236.901 133.502 253.253 120.214 260.181 113.559L241.176 114.402C243.53 113.203 251.531 108.033 264.698 96.9432C277.864 85.8534 276.828 64.4493 274.664 55.1334C265.124 62.1226 250.794 64.7277 257.828 60.4761C263.456 57.0748 270.99 46.3222 274.054 41.3711C274.29 17.0652 262.161 -4.72294 265.131 3.02505C267.507 9.22344 240.264 24.7018 226.346 31.6662L225.968 23.1467L197.133 24.4248C165.48 9.54322 133.964 16.4997 122.162 21.8381C104.068 28.4185 90.0572 43.179 85.3136 49.7368Z" fill="#CC9346" stroke="#CC9346"/>
<path d="M173.853 57.4541C158.403 64.4426 161.2 78.1518 164.529 84.1328C172.427 96.3902 188.227 95.3396 195.14 93.2822C200.814 90.9294 201.729 78.9819 201.477 73.3022C194.419 56.2799 180.12 55.6442 173.853 57.4541Z" fill="#FFF8D8" stroke="#FFF3D8"/>
<path d="M146.515 112.031C150.58 120.781 157.829 125.319 160.946 126.494C164.536 112.677 161.822 106.756 160.016 105.523C159.755 99.6248 141.434 101.093 146.515 112.031Z" fill="#EEDF77" stroke="#EEDF77"/>
<path d="M192.074 73.2401C180.098 63.79 172.229 69.9609 169.792 74.2277C168.588 76.6887 167.03 83.0177 170.431 88.6453C173.832 94.273 184.712 94.7976 189.727 94.3564C200.481 88.1014 195.772 77.6726 192.074 73.2401Z" fill="#4E2424" stroke="#725337"/>
<path d="M92.4425 116.349C87.4814 99.2338 98.6788 89.1506 104.898 86.2484C115.745 82.0904 120.912 87.0707 122.14 90.0806C130.22 109.422 123.899 114.955 123.447 119.571C122.995 124.188 98.6438 137.743 92.4425 116.349Z" fill="#F8E8DE" stroke="#FFF3D8"/>
<path d="M102.498 123.563C95.1711 112.331 102.262 103.437 106.724 100.394C106.55 96.4615 131.192 89.4596 125.684 113.343C121.278 132.449 108.391 128.117 102.498 123.563Z" fill="#4E2424" stroke="#725337"/>
<path d="M153.468 180.013C155.114 182.567 158.923 187.519 160.997 186.902C163.07 186.285 165.959 180.335 167.143 177.437" stroke="black" stroke-width="2" stroke-linecap="round"/>
<path d="M176.479 176.594C178.817 178.534 183.94 182.111 185.732 180.898C187.524 179.685 188.487 173.142 188.745 170.022" stroke="black" stroke-width="2" stroke-linecap="round"/>
<path d="M195.608 164.156C198.432 165.276 204.411 167.088 205.739 165.379C207.066 163.67 205.953 157.151 205.231 154.104" stroke="black" stroke-width="2" stroke-linecap="round"/>
</svg>
