<svg width="56" height="56" viewBox="0 0 56 56" fill="none" xmlns="http://www.w3.org/2000/svg">
<g filter="url(#filter0_d_194_5043)">
<circle cx="25" cy="25" r="25" fill="#649D6A"/>
</g>
<path d="M12.808 38H15.176V28.128H18.52V26.16H9.464V28.128H12.808V38ZM24.5819 38.224C27.7179 38.224 29.8619 35.888 29.8619 32.032C29.8619 28.192 27.7179 25.952 24.5819 25.952C21.4299 25.952 19.2859 28.176 19.2859 32.032C19.2859 35.888 21.4299 38.224 24.5819 38.224ZM24.5819 36.176C22.8059 36.176 21.7019 34.56 21.7019 32.032C21.7019 29.504 22.8059 27.984 24.5819 27.984C26.3419 27.984 27.4619 29.504 27.4619 32.032C27.4619 34.56 26.3419 36.176 24.5819 36.176ZM32.1904 38H34.5584V33.792H36.1424C38.6864 33.792 40.7024 32.592 40.7024 29.888C40.7024 27.072 38.6864 26.16 36.0784 26.16H32.1904V38ZM34.5584 31.92V28.048H35.9024C37.5344 28.048 38.3984 28.496 38.3984 29.888C38.3984 31.232 37.6144 31.92 35.9824 31.92H34.5584Z" fill="white"/>
<path d="M25 8L30.1962 17H19.8038L25 8Z" fill="white"/>
<defs>
<filter id="filter0_d_194_5043" x="0" y="0" width="56" height="56" filterUnits="userSpaceOnUse" color-interpolation-filters="sRGB">
<feFlood flood-opacity="0" result="BackgroundImageFix"/>
<feColorMatrix in="SourceAlpha" type="matrix" values="0 0 0 0 0 0 0 0 0 0 0 0 0 0 0 0 0 0 127 0" result="hardAlpha"/>
<feOffset dx="3" dy="3"/>
<feGaussianBlur stdDeviation="1.5"/>
<feComposite in2="hardAlpha" operator="out"/>
<feColorMatrix type="matrix" values="0 0 0 0 0 0 0 0 0 0 0 0 0 0 0 0 0 0 0.25 0"/>
<feBlend mode="normal" in2="BackgroundImageFix" result="effect1_dropShadow_194_5043"/>
<feBlend mode="normal" in="SourceGraphic" in2="effect1_dropShadow_194_5043" result="shape"/>
</filter>
</defs>
</svg>
