<svg width="1830" height="1070" viewBox="0 0 1830 1070" fill="none" xmlns="http://www.w3.org/2000/svg">
<path d="M360.87 642.008C682.748 322.344 873.151 -190.598 1132.18 72.6565C1391.2 335.911 1345.08 1070 1820.55 1070C1976.87 1070 -69.6206 1070 -69.6206 1070C-69.6206 1070 38.9915 961.672 360.87 642.008Z" fill="#C8E0C5" fill-opacity="0.3"/>
<path d="M938.457 634.281C873.382 319.189 651.758 38.8256 434.534 263.07C217.31 487.314 203.932 1066.67 -64.8052 1066.67C-153.157 1066.67 1003.53 1066.67 1003.53 1066.67C1003.53 1066.67 1003.53 949.373 938.457 634.281Z" fill="#89C681" fill-opacity="0.7"/>
<path d="M1555.16 832.861C1345.65 531.995 1140.73 150.902 936.836 528.297C826.371 732.761 659.632 1066.78 659.632 1066.78H1730.47C1730.47 1066.78 1655.9 977.538 1555.16 832.861Z" fill="#C8E0C5"/>
<path d="M1134.61 832.775C1395.37 595.421 1509.19 241.761 1645.06 387.328C1795.08 548.042 1826.94 1066.68 1826.94 1066.68H759.907C759.907 1066.68 1007.35 948.605 1134.61 832.775Z" fill="#A4C6A7"/>
<path d="M574.049 811.941C424.77 663.172 309.172 352.062 68.0704 628.505C-63.2465 779.071 -68.6943 1066.71 -68.6943 1066.71L1084.59 1066.71C1084.59 1066.71 765.298 1002.54 574.049 811.941Z" fill="#89C681"/>
</svg>
